<svg xmlns="http://www.w3.org/2000/svg" xmlns:xlink="http://www.w3.org/1999/xlink" viewBox="0 0 603 783">
  <path fill="#fff" d="M229.879 230.44H580.61v-37.976H229.879z"/>
  <path fill="none" stroke="#000" d="M229.879 230.44H580.61v-37.976H229.879z"/>
  <symbol id="a">
    <path d="M.189.745C.073.745 0 .662 0 .523V.209C0 .082.071 0 .187 0c.101 0 .161.051.179.171L.27.2C.259.131.238.107.197.107.147.107.125.146.125.21v.313c0 .074.023.111.073.111C.237.634.26.607.271.548l.094.029C.349.677.283.745.189.745z"/>
  </symbol>
  <symbol id="b">
    <path d="M.154.163h.158L.342 0h.127L.307.725H.162L0 0h.124l.03.163m.078.435h.002l.06-.337H.172l.06.337z"/>
  </symbol>
  <symbol id="c">
    <path d="M0 .725V.61h.124V0h.124v.61h.124v.115H0z"/>
  </symbol>
  <symbol id="d">
    <path d="M0 .725V0h.124v.316h.143V0h.124v.725H.267V.431H.124v.294H0z"/>
  </symbol>
  <symbol id="e">
    <path d="M.198.725H0V0h.124v.263h.08c.112 0 .175.083.175.23 0 .15-.065.232-.181.232M.124.614h.07C.237.614.255.586.255.492.255.399.237.365.194.365h-.07v.249z"/>
  </symbol>
  <symbol id="f">
    <path d="M.27 0h.131L.283.328c.058.025.088.086.088.19C.371.651.316.725.19.725H0V0h.124v.297h.05L.27 0M.124.614h.059C.23.614.248.593.248.508c0-.08-.015-.11-.065-.11H.124v.216z"/>
  </symbol>
  <symbol id="g">
    <path d="M.181.745C.071.745.006.662.006.555c0-.213.246-.218.246-.371C.252.131.231.106.185.106.147.106.112.132.098.204L0 .174C.018.062.096 0 .188 0 .3 0 .37.073.37.203c0 .216-.241.23-.241.361 0 .048.021.074.065.074.04 0 .067-.025.081-.088l.09.034C.34.682.283.745.181.745z"/>
  </symbol>
  <symbol id="h">
    <path d="M0 .725V0h.334v.113h-.21v.211h.155v.102H.124V.61h.201v.115H0z"/>
  </symbol>
  <use xlink:href="#a" transform="matrix(7 0 0 -7 233.892 199.566)"/>
  <use xlink:href="#b" transform="matrix(7 0 0 -7 236.692 199.496)"/>
  <use xlink:href="#c" transform="matrix(7 0 0 -7 239.884 199.496)"/>
  <use xlink:href="#a" transform="matrix(7 0 0 -7 242.796 199.566)"/>
  <use xlink:href="#d" transform="matrix(7 0 0 -7 245.911 199.496)"/>
  <use xlink:href="#e" transform="matrix(7 0 0 -7 249.432 199.496)"/>
  <use xlink:href="#d" transform="matrix(7 0 0 -7 252.66 199.496)"/>
  <use xlink:href="#f" transform="matrix(7 0 0 -7 256.18 199.496)"/>
  <use xlink:href="#b" transform="matrix(7 0 0 -7 259.148 199.496)"/>
  <use xlink:href="#g" transform="matrix(7 0 0 -7 262.641 199.566)"/>
  <use xlink:href="#h" transform="matrix(7 0 0 -7 265.784 199.496)"/>
  <use xlink:href="#g" transform="matrix(7 0 0 -7 268.437 199.566)"/>
  <path fill="#fff" d="M229.879 113.8H580.61V90.085H229.879z"/>
  <path fill="none" stroke="#000" d="M229.879 113.8H580.61V90.085H229.879z"/>
  <symbol id="i">
    <path d="M0 .725V0h.124v.725H0z"/>
  </symbol>
  <symbol id="j">
    <path d="M.279.735V.218c0-.074-.027-.1-.077-.1-.046 0-.077.025-.077.1v.517H0V.218C0 .076.073 0 .202 0s.201.078.201.223v.512H.279z"/>
  </symbol>
  <symbol id="k">
    <path d="M0 .725V0h.199c.129 0 .204.085.204.228v.269C.403.64.328.725.199.725H0M.278.491v-.26C.278.139.253.11.199.11H.124v.502h.075c.054 0 .079-.03.079-.121z"/>
  </symbol>
  <use xlink:href="#b" transform="matrix(7 0 0 -7 233.69 97.117)"/>
  <use xlink:href="#c" transform="matrix(7 0 0 -7 236.881 97.117)"/>
  <use xlink:href="#c" transform="matrix(7 0 0 -7 239.695 97.117)"/>
  <use xlink:href="#i" transform="matrix(7 0 0 -7 242.86 97.117)"/>
  <use xlink:href="#c" transform="matrix(7 0 0 -7 244.287 97.117)"/>
  <use xlink:href="#j" transform="matrix(7 0 0 -7 247.332 97.187)"/>
  <use xlink:href="#k" transform="matrix(7 0 0 -7 250.888 97.117)"/>
  <use xlink:href="#h" transform="matrix(7 0 0 -7 254.381 97.117)"/>
  <path fill="#fff" d="M229.879 147.782H580.61v-30.181H229.879z"/>
  <path fill="none" stroke="#000" d="M229.879 147.782H580.61v-30.181H229.879z"/>
  <symbol id="l">
    <path d="M.362.534c0 .114-.054.191-.185.191H0V0h.199c.144 0 .186.078.186.21 0 .088-.032.148-.1.168V.38c.054.023.077.071.077.154M.121.321h.074C.243.321.262.303.262.217.262.133.243.11.194.11H.121v.211m0 .291h.061C.23.612.247.591.247.52c0-.07-.014-.1-.065-.1H.121v.192z"/>
  </symbol>
  <symbol id="m">
    <path d="M0 .725V0h.314v.116H.121v.609H0z"/>
  </symbol>
  <symbol id="n">
    <path d="M0 .725V0h.124v.309h.177v.108H.124V.61h.205v.115H0z"/>
  </symbol>
  <use xlink:href="#l" transform="matrix(7 0 0 -7 234.004 124.389)"/>
  <use xlink:href="#h" transform="matrix(7 0 0 -7 237.308 124.389)"/>
  <use xlink:href="#m" transform="matrix(7 0 0 -7 240.22 124.389)"/>
  <use xlink:href="#i" transform="matrix(7 0 0 -7 243.013 124.389)"/>
  <use xlink:href="#h" transform="matrix(7 0 0 -7 244.728 124.389)"/>
  <use xlink:href="#n" transform="matrix(7 0 0 -7 247.64 124.389)"/>
  <use xlink:href="#g" transform="matrix(7 0 0 -7 250.265 124.459)"/>
  <path fill="#fff" d="M229.879 188.663H408v-36.83H229.879z"/>
  <path fill="none" stroke="#000" d="M229.879 188.663H408v-36.83H229.879z"/>
  <symbol id="o">
    <path d="M.42 0 .242.404l.166.321H.271L.121.379v.346H0V0h.121v.23l.04.081L.286 0H.42z"/>
  </symbol>
  <use xlink:href="#m" transform="matrix(7 0 0 -7 234.004 158.781)"/>
  <use xlink:href="#i" transform="matrix(7 0 0 -7 236.797 158.781)"/>
  <use xlink:href="#o" transform="matrix(7 0 0 -7 238.512 158.781)"/>
  <use xlink:href="#h" transform="matrix(7 0 0 -7 241.893 158.781)"/>
  <use xlink:href="#g" transform="matrix(7 0 0 -7 244.546 158.851)"/>
  <path fill="#fff" d="M412.267 188.413H580.36v-36.83H412.267z"/>
  <path fill="none" stroke="#000" d="M412.267 188.413H580.36v-36.83H412.267z"/>
  <use xlink:href="#k" transform="matrix(7 0 0 -7 416.16 158.781)"/>
  <use xlink:href="#i" transform="matrix(7 0 0 -7 419.715 158.781)"/>
  <use xlink:href="#g" transform="matrix(7 0 0 -7 421.171 158.851)"/>
  <use xlink:href="#m" transform="matrix(7 0 0 -7 424.314 158.781)"/>
  <use xlink:href="#i" transform="matrix(7 0 0 -7 427.107 158.781)"/>
  <use xlink:href="#o" transform="matrix(7 0 0 -7 428.822 158.781)"/>
  <use xlink:href="#h" transform="matrix(7 0 0 -7 432.203 158.781)"/>
  <use xlink:href="#g" transform="matrix(7 0 0 -7 434.856 158.851)"/>
  <path fill="#fff" d="M21.467 230.18H222.05V24.8H21.467z"/>
  <path fill="none" stroke="#000" d="M21.467 230.18H222.05V24.8H21.467z"/>
  <path fill="#fff" d="M21.467 394.85H298.73v-142H21.467z"/>
  <path fill="none" stroke="#000" d="M21.467 394.85H298.73v-142H21.467z"/>
  <path fill="#fff" d="M229.866 74.326H580.61V47.958H229.866z"/>
  <path fill="none" stroke="#000" d="M229.866 74.326H580.61V47.958H229.866z"/>
  <symbol id="p">
    <path d="M0 .725V0h.109v.429h.002L.307 0h.084v.725H.282V.312H.28L.091.725H0z"/>
  </symbol>
  <use xlink:href="#b" transform="matrix(7 0 0 -7 232.467 55.19)"/>
  <use xlink:href="#e" transform="matrix(7 0 0 -7 236.22 55.19)"/>
  <use xlink:href="#e" transform="matrix(7 0 0 -7 239.446 55.19)"/>
  <use xlink:href="#h" transform="matrix(7 0 0 -7 242.673 55.19)"/>
  <use xlink:href="#b" transform="matrix(7 0 0 -7 245.27 55.19)"/>
  <use xlink:href="#f" transform="matrix(7 0 0 -7 249.022 55.19)"/>
  <use xlink:href="#b" transform="matrix(7 0 0 -7 251.99 55.19)"/>
  <use xlink:href="#p" transform="matrix(7 0 0 -7 255.742 55.19)"/>
  <use xlink:href="#a" transform="matrix(7 0 0 -7 259.151 55.26)"/>
  <use xlink:href="#h" transform="matrix(7 0 0 -7 262.266 55.19)"/>
  <path fill="#fff" d="M229.866 44.68h58.591V23h-58.591z"/>
  <path fill="none" stroke="#000" d="M229.866 44.68h58.591V23h-58.591z"/>
  <symbol id="q">
    <path d="M.457.725H.322L.23.362H.228L.135.725H0L.166.221V0H.29v.218l.167.507z"/>
  </symbol>
  <use xlink:href="#h" transform="matrix(7 0 0 -7 246.615 29.943)"/>
  <use xlink:href="#c" transform="matrix(7 0 0 -7 249.24 29.943)"/>
  <use xlink:href="#d" transform="matrix(7 0 0 -7 252.341 29.943)"/>
  <use xlink:href="#p" transform="matrix(7 0 0 -7 255.862 29.943)"/>
  <use xlink:href="#i" transform="matrix(7 0 0 -7 259.446 29.943)"/>
  <use xlink:href="#a" transform="matrix(7 0 0 -7 261.05 30.013)"/>
  <use xlink:href="#i" transform="matrix(7 0 0 -7 264.227 29.943)"/>
  <use xlink:href="#c" transform="matrix(7 0 0 -7 265.655 29.943)"/>
  <use xlink:href="#q" transform="matrix(7 0 0 -7 268.406 29.943)"/>
  <path fill="#fff" d="M290.22 44.68h58.533V23H290.22z"/>
  <path fill="none" stroke="#000" d="M290.22 44.68h58.533V23H290.22z"/>
  <symbol id="r">
    <path d="M.201.745C.069.745 0 .662 0 .518V.227C0 .083.069 0 .201 0c.133 0 .202.083.202.227v.292c0 .143-.069.226-.202.226M.279.227C.279.14.255.108.201.108.148.108.124.14.124.227v.292c0 .085.025.115.078.115S.279.604.279.518V.227z"/>
  </symbol>
  <use xlink:href="#p" transform="matrix(7 0 0 -7 303.594 29.943)"/>
  <use xlink:href="#b" transform="matrix(7 0 0 -7 306.8 29.943)"/>
  <use xlink:href="#c" transform="matrix(7 0 0 -7 309.992 29.943)"/>
  <use xlink:href="#i" transform="matrix(7 0 0 -7 313.156 29.943)"/>
  <use xlink:href="#r" transform="matrix(7 0 0 -7 314.759 30.013)"/>
  <use xlink:href="#p" transform="matrix(7 0 0 -7 318.252 29.943)"/>
  <use xlink:href="#b" transform="matrix(7 0 0 -7 321.458 29.943)"/>
  <use xlink:href="#m" transform="matrix(7 0 0 -7 325.21 29.943)"/>
  <use xlink:href="#i" transform="matrix(7 0 0 -7 328.003 29.943)"/>
  <use xlink:href="#c" transform="matrix(7 0 0 -7 329.43 29.943)"/>
  <use xlink:href="#q" transform="matrix(7 0 0 -7 332.182 29.943)"/>
  <path fill="#fff" d="M350.516 44.68h71.551V23h-71.551z"/>
  <path fill="none" stroke="#000" d="M350.516 44.68h71.551V23h-71.551z"/>
  <use xlink:href="#l" transform="matrix(7 0 0 -7 371.774 29.943)"/>
  <use xlink:href="#i" transform="matrix(7 0 0 -7 375.141 29.943)"/>
  <use xlink:href="#f" transform="matrix(7 0 0 -7 376.856 29.943)"/>
  <use xlink:href="#c" transform="matrix(7 0 0 -7 379.768 29.943)"/>
  <use xlink:href="#d" transform="matrix(7 0 0 -7 382.87 29.943)"/>
  <use xlink:href="#e" transform="matrix(7 0 0 -7 386.39 29.943)"/>
  <use xlink:href="#m" transform="matrix(7 0 0 -7 389.617 29.943)"/>
  <use xlink:href="#b" transform="matrix(7 0 0 -7 392.032 29.943)"/>
  <use xlink:href="#a" transform="matrix(7 0 0 -7 395.566 30.013)"/>
  <use xlink:href="#h" transform="matrix(7 0 0 -7 398.681 29.943)"/>
  <path fill="#fff" d="M452.24 44.68h71.551V23H452.24z"/>
  <path fill="none" stroke="#000" d="M452.24 44.68h71.551V23H452.24z"/>
  <symbol id="s">
    <path d="M.205.745C.066.745 0 .649 0 .506V.229C0 .073.071 0 .177 0a.15.15 0 0 1 .117.051V.01h.101v.366h-.17v-.09h.061v-.13C.266.124.244.113.212.113.156.113.124.149.124.23v.275c0 .09.028.129.09.129C.254.634.283.611.3.547l.095.029C.376.685.304.745.205.745z"/>
  </symbol>
  <symbol id="t">
    <path d="M0 0z"/>
  </symbol>
  <symbol id="u">
    <path d="M.365.602C.334.695.288.743.205.743.103.743.057.669.057.585.057.532.075.486.1.444A.286.286 0 0 1 0 .219C0 .061.077 0 .174 0c.063 0 .112.028.149.075A.225.225 0 0 1 .468.001l.015.107a.164.164 0 0 0-.105.073.687.687 0 0 1 .033.178h.056v.096H.325V.431c0-.05-.003-.1-.01-.143l-.13.225a.171.171 0 0 0-.02.076c0 .037.016.056.045.056C.24.645.264.618.285.56l.08.042M.19.1C.142.1.115.13.115.22c0 .043.012.093.04.132L.27.157C.249.121.222.1.19.1z"/>
  </symbol>
  <use xlink:href="#s" transform="matrix(7 0 0 -7 462.392 30.013)"/>
  <use xlink:href="#h" transform="matrix(7 0 0 -7 465.85 29.943)"/>
  <use xlink:href="#p" transform="matrix(7 0 0 -7 468.762 29.943)"/>
  <use xlink:href="#k" transform="matrix(7 0 0 -7 472.283 29.943)"/>
  <use xlink:href="#h" transform="matrix(7 0 0 -7 475.776 29.943)"/>
  <use xlink:href="#f" transform="matrix(7 0 0 -7 478.688 29.943)"/>
  <use xlink:href="#t" transform="matrix(7 0 0 -7 481.58 29.943)"/>
  <use xlink:href="#u" transform="matrix(7 0 0 -7 482.762 30.006)"/>
  <use xlink:href="#t" transform="matrix(7 0 0 -7 486.15 29.943)"/>
  <use xlink:href="#e" transform="matrix(7 0 0 -7 487.613 29.943)"/>
  <use xlink:href="#f" transform="matrix(7 0 0 -7 490.84 29.943)"/>
  <use xlink:href="#r" transform="matrix(7 0 0 -7 494.011 30.013)"/>
  <use xlink:href="#p" transform="matrix(7 0 0 -7 497.504 29.943)"/>
  <use xlink:href="#r" transform="matrix(7 0 0 -7 500.913 30.013)"/>
  <use xlink:href="#j" transform="matrix(7 0 0 -7 504.35 30.013)"/>
  <use xlink:href="#p" transform="matrix(7 0 0 -7 507.906 29.943)"/>
  <use xlink:href="#g" transform="matrix(7 0 0 -7 511.168 30.013)"/>
  <path fill="#fff" d="M525.553 44.68H552.2V23h-26.647z"/>
  <path fill="none" stroke="#000" d="M525.553 44.68H552.2V23h-26.647z"/>
  <use xlink:href="#d" transform="matrix(7 0 0 -7 535.198 29.943)"/>
  <use xlink:href="#c" transform="matrix(7 0 0 -7 538.432 29.943)"/>
  <path fill="#fff" d="M423.83 44.68h26.647V23H423.83z"/>
  <path fill="none" stroke="#000" d="M423.83 44.68h26.647V23H423.83z"/>
  <use xlink:href="#b" transform="matrix(7 0 0 -7 431.532 29.943)"/>
  <use xlink:href="#s" transform="matrix(7 0 0 -7 435.067 30.013)"/>
  <use xlink:href="#h" transform="matrix(7 0 0 -7 438.525 29.943)"/>
  <path fill="#fff" d="M553.963 44.68h26.647V23h-26.647z"/>
  <path fill="none" stroke="#000" d="M553.963 44.68h26.647V23h-26.647z"/>
  <symbol id="v">
    <path d="M.71.725H.587L.504.175H.502l-.089.55H.297L.207.178H.205L.124.725H0L.133 0H.27l.084.487h.002L.439 0h.137L.71.725z"/>
  </symbol>
  <use xlink:href="#v" transform="matrix(7 0 0 -7 562.495 29.943)"/>
  <use xlink:href="#c" transform="matrix(7 0 0 -7 567.689 29.943)"/>
  <use xlink:href="#p" transform="matrix(7 0 0 -7 26.393 261.958)"/>
  <use xlink:href="#r" transform="matrix(7 0 0 -7 29.802 262.028)"/>
  <use xlink:href="#c" transform="matrix(7 0 0 -7 32.93 261.958)"/>
  <use xlink:href="#h" transform="matrix(7 0 0 -7 36.032 261.958)"/>
  <use xlink:href="#g" transform="matrix(7 0 0 -7 38.685 262.028)"/>
  <path fill="#fff" d="M305.818 297.85H580.61v-45H305.818z"/>
  <path fill="none" stroke="#000" d="M305.818 297.85H580.61v-45H305.818z"/>
  <use xlink:href="#b" transform="matrix(7 0 0 -7 309.924 261.956)"/>
  <use xlink:href="#m" transform="matrix(7 0 0 -7 313.676 261.956)"/>
  <use xlink:href="#m" transform="matrix(7 0 0 -7 316.406 261.956)"/>
  <use xlink:href="#i" transform="matrix(7 0 0 -7 319.2 261.956)"/>
  <use xlink:href="#h" transform="matrix(7 0 0 -7 320.914 261.956)"/>
  <use xlink:href="#g" transform="matrix(7 0 0 -7 323.567 262.026)"/>
  <path fill="#fff" d="M305.818 346.35H580.61v-45H305.818z"/>
  <path fill="none" stroke="#000" d="M305.818 346.35H580.61v-45H305.818z"/>
  <symbol id="w">
    <path d="M.418.725.267.298H.265l-.15.427H0V0h.112v.426h.002L.238.114h.056l.125.312h.002V0h.112v.725H.418z"/>
  </symbol>
  <use xlink:href="#h" transform="matrix(7 0 0 -7 310.24 310.484)"/>
  <use xlink:href="#p" transform="matrix(7 0 0 -7 313.151 310.484)"/>
  <use xlink:href="#h" transform="matrix(7 0 0 -7 316.672 310.484)"/>
  <use xlink:href="#w" transform="matrix(7 0 0 -7 319.584 310.484)"/>
  <use xlink:href="#i" transform="matrix(7 0 0 -7 324.162 310.484)"/>
  <use xlink:href="#h" transform="matrix(7 0 0 -7 325.877 310.484)"/>
  <use xlink:href="#g" transform="matrix(7 0 0 -7 328.53 310.554)"/>
  <path fill="#fff" d="M305.818 394.85H580.61v-45H305.818z"/>
  <path fill="none" stroke="#000" d="M305.818 394.85H580.61v-45H305.818z"/>
  <symbol id="x">
    <path d="M.359.114H.137l.224.533v.078H.012V.611h.216L0 .077V0h.359v.114z"/>
  </symbol>
  <use xlink:href="#r" transform="matrix(7 0 0 -7 310.127 359.054)"/>
  <use xlink:href="#f" transform="matrix(7 0 0 -7 313.62 358.984)"/>
  <use xlink:href="#s" transform="matrix(7 0 0 -7 316.791 359.054)"/>
  <use xlink:href="#b" transform="matrix(7 0 0 -7 319.934 358.984)"/>
  <use xlink:href="#p" transform="matrix(7 0 0 -7 323.686 358.984)"/>
  <use xlink:href="#i" transform="matrix(7 0 0 -7 327.27 358.984)"/>
  <use xlink:href="#x" transform="matrix(7 0 0 -7 328.81 358.984)"/>
  <use xlink:href="#b" transform="matrix(7 0 0 -7 331.645 358.984)"/>
  <use xlink:href="#c" transform="matrix(7 0 0 -7 334.837 358.984)"/>
  <use xlink:href="#i" transform="matrix(7 0 0 -7 338.001 358.984)"/>
  <use xlink:href="#r" transform="matrix(7 0 0 -7 339.604 359.054)"/>
  <use xlink:href="#p" transform="matrix(7 0 0 -7 343.097 358.984)"/>
  <use xlink:href="#g" transform="matrix(7 0 0 -7 346.36 359.054)"/>
  <path d="M18 34.636h204.5V18.377H18z"/>
  <symbol id="y">
    <path d="M.227.368A.18.18 0 0 1 .254.271.262.262 0 0 1 .323.199.35.35 0 0 1 .515.14c.042 0 .079.01.111.028a.265.265 0 0 1 .085.079.3.3 0 0 0-.033-.08A.295.295 0 0 0 .43.002.117.117 0 0 0 .409 0H.39a.514.514 0 0 0-.142.02.405.405 0 0 0-.125.058A.28.28 0 0 0 0 .316.294.294 0 0 0 .111.55a.344.344 0 0 0 .115.06.45.45 0 0 0 .278-.004.484.484 0 0 0 .127-.07C.631.451.63.366.628.282A.755.755 0 0 1 .5.417a.358.358 0 0 1-.082.047.228.228 0 0 1-.089.018C.295.482.269.471.252.449A.128.128 0 0 1 .227.368z"/>
  </symbol>
  <symbol id="z">
    <path d="M.585.14.586.107a.468.468 0 0 1 .016-.08A.078.078 0 0 1 .618 0H.356a.06.06 0 0 1 .015.026.252.252 0 0 1 .016.081.37.37 0 0 1 .002.033v.062H.228V.14L.229.107a.468.468 0 0 1 .016-.08A.078.078 0 0 1 .261 0H0a.06.06 0 0 1 .015.026.468.468 0 0 1 .019.114v.225a.338.338 0 0 1-.008.074.222.222 0 0 1-.011.039A.06.06 0 0 1 0 .505h.261A.078.078 0 0 1 .245.478.302.302 0 0 1 .229.397.673.673 0 0 1 .228.365V.3h.161v.065c0 .008 0 .019-.002.032a.3.3 0 0 1-.016.081.06.06 0 0 1-.015.027h.262A.078.078 0 0 1 .602.478.302.302 0 0 1 .586.397.673.673 0 0 1 .585.365V.14z"/>
  </symbol>
  <symbol id="A">
    <path d="M.504.452.505.435l.002-.02.004-.02A.391.391 0 0 0 .516.379L.599.141.614.103a.436.436 0 0 1 .051-.08A.102.102 0 0 1 .698 0H.384c.009.004.014.012.017.023a.095.095 0 0 1 .001.059.22.22 0 0 1-.008.028H.215A.124.124 0 0 1 .207.024.036.036 0 0 1 .225 0H0a.086.086 0 0 1 .033.024A.464.464 0 0 1 .1.147l.081.23c.003.01.006.022.008.037a.234.234 0 0 1 .002.065.107.107 0 0 1-.007.025h.33a.13.13 0 0 1-.01-.052M.36.208.305.367.249.208H.36z"/>
  </symbol>
  <symbol id="B">
    <path d="M.443.194A.41.41 0 0 1 .505.099.196.196 0 0 1 .548.063.103.103 0 0 1 .626.052c.01.003.017.007.023.012A.07.07 0 0 0 .627.033a.147.147 0 0 0-.07-.03.338.338 0 0 0-.201.039.25.25 0 0 0-.064.054.181.181 0 0 0-.035.078h-.03L.229.136c0-.015.002-.03.004-.046a.425.425 0 0 1 .01-.044.067.067 0 0 1 .018-.031H0a.069.069 0 0 1 .015.026.228.228 0 0 1 .016.078.344.344 0 0 1 .002.033v.229c0 .009 0 .02-.002.033a.273.273 0 0 1-.016.079A.068.068 0 0 1 0 .52h.361A.272.272 0 0 0 .434.51.213.213 0 0 0 .5.48.143.143 0 0 0 .565.356.155.155 0 0 0 .531.255.193.193 0 0 0 .443.194M.311.297c.009 0 .017 0 .025.002a.079.079 0 0 1 .023.009c.007.005.012.01.016.017a.047.047 0 0 1 .007.026c0 .01-.003.017-.008.023a.056.056 0 0 1-.019.014.149.149 0 0 1-.046.008H.227V.297h.084z"/>
  </symbol>
  <symbol id="C">
    <path d="M.194.315c0-.031.008-.06.023-.084A.214.214 0 0 1 .276.17.28.28 0 0 1 .44.119c.036 0 .068.008.095.024a.227.227 0 0 1 .073.068A.496.496 0 0 0 .58.143.252.252 0 0 0 .35 0H.333a.442.442 0 0 0-.228.066.266.266 0 0 0-.076.085A.237.237 0 0 0 0 .27a.246.246 0 0 0 .095.2c.029.023.062.04.099.051a.386.386 0 0 0 .117.018.406.406 0 0 0 .228-.081A5.997 5.997 0 0 0 .537.241a.662.662 0 0 1-.11.115.306.306 0 0 1-.07.04.185.185 0 0 1-.076.016.08.08 0 0 1-.066-.028.11.11 0 0 1-.021-.069z"/>
  </symbol>
  <symbol id="D">
    <path d="M.571.273a.46.46 0 0 1-.062.066.177.177 0 0 1-.041.026.099.099 0 0 1-.043.01H.39V.138A.673.673 0 0 1 .397.065a.316.316 0 0 1 .01-.038A.078.078 0 0 1 .423 0H.148a.062.062 0 0 1 .016.027.299.299 0 0 1 .016.08.375.375 0 0 1 .002.034v.234H.141a.097.097 0 0 1-.042-.01.177.177 0 0 1-.04-.024A.273.273 0 0 1 0 .271l.058.234h.454L.571.273z"/>
  </symbol>
  <symbol id="E">
    <path d="M.374.129a.18.18 0 0 1 .107.034.269.269 0 0 1 .074.077A696.286 696.286 0 0 0 .528.129L.498 0H0a.054.054 0 0 1 .016.026.252.252 0 0 1 .016.081.37.37 0 0 1 .002.033v.221c0 .009 0 .02-.002.033a.3.3 0 0 1-.016.081A.062.062 0 0 1 0 .503h.481V.331a.044.044 0 0 1-.017.02.113.113 0 0 1-.027.013.163.163 0 0 1-.057.009H.231v-.07h.028a.14.14 0 0 1 .065.011c.01.004.017.01.022.017V.178a.046.046 0 0 1-.02.017.125.125 0 0 1-.029.011.546.546 0 0 1-.066.006V.129h.143z"/>
  </symbol>
  <symbol id="F">
    <path d="M0 0z"/>
  </symbol>
  <symbol id="G">
    <path d="M.26.482c.002-.01.01-.02.024-.03A.53.53 0 0 1 .337.424 19.272 19.272 0 0 0 .485.352l.05-.031A.235.235 0 0 0 .579.285.156.156 0 0 0 .609.24.128.128 0 0 0 .621.184.15.15 0 0 0 .592.098.19.19 0 0 0 .525.039.3.3 0 0 0 .43.009a.599.599 0 0 0-.252.012.183.183 0 0 0-.045.019.31.31 0 0 0-.091.081.278.278 0 0 0-.025.051A.461.461 0 0 0 0 .234.206.206 0 0 1 .049.187a.34.34 0 0 1 .13-.052A.397.397 0 0 1 .273.13a.295.295 0 0 1 .035.006.12.12 0 0 1 .031.013.027.027 0 0 1 .013.023c0 .012-.008.024-.025.035a2.173 2.173 0 0 1-.15.074.83.83 0 0 0-.084.045.292.292 0 0 0-.065.053.095.095 0 0 0-.026.065c0 .035.01.064.03.088a.24.24 0 0 0 .076.06.35.35 0 0 0 .097.035A.485.485 0 0 0 .45.619.365.365 0 0 0 .584.556V.387a.404.404 0 0 1-.123.086.394.394 0 0 1-.155.041C.29.515.278.513.269.506.261.499.258.491.26.482z"/>
  </symbol>
  <symbol id="H">
    <path d="M.421.329c0-.02.005-.04.014-.064A.448.448 0 0 1 .566.089.333.333 0 0 1 .607.066a.11.11 0 0 1 .044-.01.05.05 0 0 1 .042.02.087.087 0 0 0-.02-.039.107.107 0 0 0-.07-.034.297.297 0 0 0-.212.051.31.31 0 0 0-.121.131L.229.146.231.113A.316.316 0 0 1 .246.036.062.062 0 0 1 .262.01H0a.062.062 0 0 1 .016.027.252.252 0 0 1 .016.081.375.375 0 0 1 .002.034V.37a.375.375 0 0 1-.007.076.245.245 0 0 1-.011.041A.062.062 0 0 1 0 .515h.262A.07.07 0 0 1 .245.487.302.302 0 0 1 .23.406.684.684 0 0 1 .229.373V.334l.147.141a.024.024 0 0 1 .007.02.037.037 0 0 1-.005.02h.256A.181.181 0 0 1 .6.496.336.336 0 0 1 .57.472L.421.329z"/>
  </symbol>
  <use xlink:href="#y" fill="#fff" transform="matrix(14 0 0 -14 49.48 31.93)"/>
  <use xlink:href="#z" fill="#fff" transform="matrix(14 0 0 -14 60.05 31.637)"/>
  <use xlink:href="#A" fill="#fff" transform="matrix(14 0 0 -14 69.263 31.623)"/>
  <use xlink:href="#B" fill="#fff" transform="matrix(14 0 0 -14 79.595 31.847)"/>
  <use xlink:href="#A" fill="#fff" transform="matrix(14 0 0 -14 88.289 31.623)"/>
  <use xlink:href="#C" fill="#fff" transform="matrix(14 0 0 -14 97.85 31.875)"/>
  <use xlink:href="#D" fill="#fff" transform="matrix(14 0 0 -14 106.629 31.637)"/>
  <use xlink:href="#E" fill="#fff" transform="matrix(14 0 0 -14 115.393 31.623)"/>
  <use xlink:href="#B" fill="#fff" transform="matrix(14 0 0 -14 123.89 31.847)"/>
  <use xlink:href="#F" fill="#fff" transform="matrix(14 0 0 -14 132.585 31.637)"/>
  <use xlink:href="#G" fill="#fff" transform="matrix(14 0 0 -14 137.079 32.029)"/>
  <use xlink:href="#H" fill="#fff" transform="matrix(14 0 0 -14 146.655 31.777)"/>
  <use xlink:href="#E" fill="#fff" transform="matrix(14 0 0 -14 156.525 31.623)"/>
  <use xlink:href="#D" fill="#fff" transform="matrix(14 0 0 -14 164.475 31.637)"/>
  <use xlink:href="#C" fill="#fff" transform="matrix(14 0 0 -14 172.96 31.875)"/>
  <use xlink:href="#z" fill="#fff" transform="matrix(14 0 0 -14 182.087 31.637)"/>
  <path d="M229.629 90.931H581.11V77.507H229.629z"/>
  <symbol id="I">
    <path d="M.417.588A.319.319 0 0 0 .503.576.248.248 0 0 0 .58.54.186.186 0 0 0 .635.479a.202.202 0 0 0-.06-.252.267.267 0 0 0-.084-.045.317.317 0 0 0-.097-.015H.266l.002-.04A.59.59 0 0 1 .285.033.093.093 0 0 1 .305 0H0a.072.072 0 0 1 .018.031.4.4 0 0 1 .021.129v.265a.454.454 0 0 1-.021.131A.08.08 0 0 1 0 .588h.417M.359.33a.107.107 0 0 1 .054.011c.008.005.015.01.02.017a.045.045 0 0 1 .008.027.03.03 0 0 1-.009.023.097.097 0 0 1-.05.022.185.185 0 0 1-.026.002h-.09V.33h.093z"/>
  </symbol>
  <symbol id="J">
    <path d="M.212.418C.214.408.222.4.234.391A3.39 3.39 0 0 1 .347.335.817.817 0 0 0 .458.274.212.212 0 0 0 .495.243.12.12 0 0 0 .506.084.16.16 0 0 0 .449.033.262.262 0 0 0 .368.008a.504.504 0 0 0-.216.01.23.23 0 0 0-.116.085A.273.273 0 0 0 0 .2.2.2 0 0 1 .094.13.306.306 0 0 1 .235.106l.03.006c.01.003.019.006.026.011a.022.022 0 0 1 .011.019c0 .01-.007.02-.022.03a1.857 1.857 0 0 1-.127.066.61.61 0 0 0-.072.039.307.307 0 0 0-.056.047.081.081 0 0 0-.022.055c0 .03.009.054.026.075a.21.21 0 0 0 .064.051.385.385 0 0 0 .166.039.51.51 0 0 0 .126-.016.321.321 0 0 0 .114-.054V.33a.244.244 0 0 1-.047.041.443.443 0 0 1-.2.074C.238.446.227.444.22.438a.02.02 0 0 1-.008-.02z"/>
  </symbol>
  <symbol id="K">
    <path d="M.652.265A.22.22 0 0 0 .624.154.278.278 0 0 0 .55.07.4.4 0 0 0 .105.068a.291.291 0 0 0-.076.083A.22.22 0 0 0 0 .265c0 .041.01.078.028.111.019.033.043.06.074.083a.39.39 0 0 0 .444.003.259.259 0 0 0 .076-.083.217.217 0 0 0 .03-.114M.324.417A.098.098 0 0 1 .269.403.088.088 0 0 1 .238.368a.162.162 0 0 1-.015-.05.489.489 0 0 1 .002-.106.152.152 0 0 1 .017-.046.098.098 0 0 1 .032-.034.09.09 0 0 1 .05-.013c.02 0 .038.004.052.013.014.009.025.02.033.033.009.014.015.03.018.047a.375.375 0 0 1 .001.107.137.137 0 0 1-.016.049.093.093 0 0 1-.033.035.098.098 0 0 1-.055.014z"/>
  </symbol>
  <symbol id="L">
    <path d="M.606.005a.387.387 0 0 0-.114.002.306.306 0 0 0-.12.057 1.699 1.699 0 0 0-.151.123l-.06.055V.155A.746.746 0 0 1 .168.078a.387.387 0 0 1 .01-.042.07.07 0 0 1 .017-.028H0a.062.062 0 0 1 .016.028.245.245 0 0 1 .016.084.375.375 0 0 1 .002.034V.37c0 .009 0 .02-.002.033a.3.3 0 0 1-.016.082A.062.062 0 0 1 0 .513h.203L.25.451.313.375.38.302A.367.367 0 0 1 .44.253v.111c0 .009 0 .02-.002.034a.33.33 0 0 1-.016.086.063.063 0 0 1-.016.029H.6A.07.07 0 0 1 .583.484.336.336 0 0 1 .567.401.746.746 0 0 1 .566.367L.567.178A.596.596 0 0 1 .566.143V.109L.567.082A.165.165 0 0 1 .585.021.033.033 0 0 1 .606.005z"/>
  </symbol>
  <symbol id="M">
    <path d="M.33.131a.175.175 0 0 1 .098.026c.014.01.026.02.036.034a.113.113 0 0 1 .02.038A1.607 1.607 0 0 1 .459.13L.427 0H0a.068.068 0 0 1 .015.027.468.468 0 0 1 .019.112v.232a.308.308 0 0 1-.008.071.159.159 0 0 1-.01.037.069.069 0 0 1-.015.026h.283a.11.11 0 0 1-.019-.03.367.367 0 0 1-.023-.112V.131H.33z"/>
  </symbol>
  <symbol id="N">
    <path d="M.275.505A.078.078 0 0 1 .259.478.302.302 0 0 1 .243.397.684.684 0 0 1 .242.364V.141L.243.107a.468.468 0 0 1 .016-.08A.078.078 0 0 1 .275 0H0a.068.068 0 0 1 .015.027.468.468 0 0 1 .019.113v.225a.344.344 0 0 1-.019.113A.068.068 0 0 1 0 .505h.275z"/>
  </symbol>
  <symbol id="O">
    <path d="M.657.505A.068.068 0 0 1 .622.486.368.368 0 0 1 .551.401.949.949 0 0 1 .528.366L.438.224V.143L.439.109A.53.53 0 0 1 .455.027.07.07 0 0 1 .472 0H.196a.054.054 0 0 1 .016.026.252.252 0 0 1 .016.081A.37.37 0 0 1 .23.14v.084L.117.39a1.187 1.187 0 0 1-.053.066.374.374 0 0 1-.034.032.078.078 0 0 1-.03.017h.318A.03.03 0 0 1 .306.49.046.046 0 0 1 .302.471c0-.008.003-.019.01-.032A.595.595 0 0 1 .378.335c.023.033.041.061.055.084.014.023.021.04.021.052A.046.046 0 0 1 .45.49a.03.03 0 0 1-.012.015h.219z"/>
  </symbol>
  <use xlink:href="#I" fill="#fff" transform="matrix(14 0 0 -14 358.652 88.021)"/>
  <use xlink:href="#E" fill="#fff" transform="matrix(14 0 0 -14 368.676 87.993)"/>
  <use xlink:href="#B" fill="#fff" transform="matrix(14 0 0 -14 377.174 88.217)"/>
  <use xlink:href="#J" fill="#fff" transform="matrix(14 0 0 -14 385.966 88.301)"/>
  <use xlink:href="#K" fill="#fff" transform="matrix(14 0 0 -14 394.016 88.217)"/>
  <use xlink:href="#L" fill="#fff" transform="matrix(14 0 0 -14 403.984 88.12)"/>
  <use xlink:href="#A" fill="#fff" transform="matrix(14 0 0 -14 413.028 87.993)"/>
  <use xlink:href="#M" fill="#fff" transform="matrix(14 0 0 -14 423.36 88.007)"/>
  <use xlink:href="#N" fill="#fff" transform="matrix(14 0 0 -14 430.836 88.007)"/>
  <use xlink:href="#D" fill="#fff" transform="matrix(14 0 0 -14 435.456 88.007)"/>
  <use xlink:href="#O" fill="#fff" transform="matrix(14 0 0 -14 443.337 88.007)"/>
  <path d="M18 416.844h567V403.42H18z"/>
  <symbol id="P">
    <path d="M.59.527A.223.223 0 0 1 .594.484L.598.46A.219.219 0 0 1 .604.441L.701.166C.706.153.711.138.719.121A.448.448 0 0 1 .778.027.108.108 0 0 1 .816 0H.45a.027.027 0 0 1 .012.011.08.08 0 0 1 .012.035l.001.017a.128.128 0 0 1-.004.033.366.366 0 0 1-.01.033h-.21A.169.169 0 0 1 .243.028.045.045 0 0 1 .263 0H0a.112.112 0 0 1 .039.029.337.337 0 0 1 .059.097.529.529 0 0 1 .019.046l.094.267a.242.242 0 0 1 .01.044.256.256 0 0 1 .005.045l-.003.03a.11.11 0 0 1-.008.03h.386A.143.143 0 0 1 .59.527M.421.244.356.427.291.244h.13z"/>
  </symbol>
  <symbol id="Q">
    <path d="M.313.505A.477.477 0 0 0 .425.492.27.27 0 0 0 .522.451.203.203 0 0 0 .589.376.237.237 0 0 0 .615.26.301.301 0 0 0 .603.175.231.231 0 0 0 .434.01.347.347 0 0 0 .346 0H0a.07.07 0 0 1 .016.028.252.252 0 0 1 .016.082.38.38 0 0 1 .002.035v.214a.375.375 0 0 1-.007.076.245.245 0 0 1-.011.041A.07.07 0 0 1 0 .505h.313M.256.123a.176.176 0 0 1 .152.089c.01.019.014.04.014.063a.093.093 0 0 1-.036.076.145.145 0 0 1-.084.026H.227V.124L.241.123h.015z"/>
  </symbol>
  <symbol id="R">
    <path d="M.695.505A.106.106 0 0 1 .661.48.254.254 0 0 1 .633.441.451.451 0 0 1 .595.358L.514.128A.269.269 0 0 1 .502.051c0-.009 0-.017.002-.026A.107.107 0 0 1 .511 0h-.33c.007.016.01.033.01.052 0 .01-.001.022-.004.037a.184.184 0 0 1-.008.037L.096.37a.327.327 0 0 1-.037.076.186.186 0 0 1-.028.036A.08.08 0 0 1 0 .505h.313C.304.501.298.493.295.481A.146.146 0 0 1 .291.45c0-.015.002-.029.007-.041L.39.139l.092.27A.112.112 0 0 1 .484.48C.481.492.476.5.467.505h.228z"/>
  </symbol>
  <use xlink:href="#P" fill="#fff" transform="matrix(14 0 0 -14 213.245 413.92)"/>
  <use xlink:href="#C" fill="#fff" transform="matrix(14 0 0 -14 224.95 414.158)"/>
  <use xlink:href="#D" fill="#fff" transform="matrix(14 0 0 -14 233.727 413.92)"/>
  <use xlink:href="#N" fill="#fff" transform="matrix(14 0 0 -14 242.491 413.92)"/>
  <use xlink:href="#K" fill="#fff" transform="matrix(14 0 0 -14 247.181 414.13)"/>
  <use xlink:href="#L" fill="#fff" transform="matrix(14 0 0 -14 257.15 414.032)"/>
  <use xlink:href="#J" fill="#fff" transform="matrix(14 0 0 -14 266.431 414.214)"/>
  <use xlink:href="#F" fill="#fff" transform="matrix(14 0 0 -14 274.201 413.92)"/>
  <use xlink:href="#A" fill="#fff" transform="matrix(14 0 0 -14 278.443 413.906)"/>
  <use xlink:href="#L" fill="#fff" transform="matrix(14 0 0 -14 288.775 414.032)"/>
  <use xlink:href="#Q" fill="#fff" transform="matrix(14 0 0 -14 298.38 413.92)"/>
  <use xlink:href="#F" fill="#fff" transform="matrix(14 0 0 -14 307.27 413.92)"/>
  <use xlink:href="#P" fill="#fff" transform="matrix(14 0 0 -14 311.511 413.92)"/>
  <use xlink:href="#C" fill="#fff" transform="matrix(14 0 0 -14 323.215 414.158)"/>
  <use xlink:href="#D" fill="#fff" transform="matrix(14 0 0 -14 331.993 413.92)"/>
  <use xlink:href="#N" fill="#fff" transform="matrix(14 0 0 -14 340.757 413.92)"/>
  <use xlink:href="#R" fill="#fff" transform="matrix(14 0 0 -14 345.167 413.92)"/>
  <use xlink:href="#N" fill="#fff" transform="matrix(14 0 0 -14 355.457 413.92)"/>
  <use xlink:href="#D" fill="#fff" transform="matrix(14 0 0 -14 360.077 413.92)"/>
  <use xlink:href="#N" fill="#fff" transform="matrix(14 0 0 -14 368.841 413.92)"/>
  <use xlink:href="#E" fill="#fff" transform="matrix(14 0 0 -14 373.811 413.906)"/>
  <use xlink:href="#J" fill="#fff" transform="matrix(14 0 0 -14 381.987 414.214)"/>
  <path d="M18 614.091h567v-13.424H18z"/>
  <symbol id="S">
    <path d="M.541.588A9.54 9.54 0 0 0 .606.325a.152.152 0 0 1-.03.052.14.14 0 0 1-.042.035.192.192 0 0 1-.053.019.281.281 0 0 1-.059.006h-.15V.314h.082a.411.411 0 0 1 .098.012c.016.005.03.011.04.02V.135a.084.084 0 0 1-.036.021.493.493 0 0 1-.147.019H.272A1.065 1.065 0 0 1 .279.082.35.35 0 0 1 .292.033.082.082 0 0 1 .312 0H0a.072.072 0 0 1 .018.031.44.44 0 0 1 .021.132v.264a.448.448 0 0 1-.021.13A.072.072 0 0 1 0 .588h.541z"/>
  </symbol>
  <symbol id="T">
    <path d="M.518.226.55.17A.406.406 0 0 1 .591.115a.246.246 0 0 1 .05-.042.123.123 0 0 1 .062-.016c.01 0 .019.001.029.003.01.003.02.007.027.014A.082.082 0 0 0 .734.038.165.165 0 0 0 .652.004a.42.42 0 0 0-.236.045.284.284 0 0 0-.075.063.2.2 0 0 0-.041.09H.265L.267.158A.759.759 0 0 1 .284.054.08.08 0 0 1 .305.017H0a.072.072 0 0 1 .018.031.4.4 0 0 1 .021.129v.265a.454.454 0 0 1-.021.13A.08.08 0 0 1 0 .604h.422A.346.346 0 0 0 .508.593.244.244 0 0 0 .585.559.18.18 0 0 0 .64.5.16.16 0 0 0 .661.416a.18.18 0 0 0-.04-.118.233.233 0 0 0-.103-.072M.364.347A.11.11 0 0 1 .42.361a.06.06 0 0 1 .019.02.046.046 0 0 1 .007.029.044.044 0 0 1-.01.028.052.052 0 0 1-.022.016.179.179 0 0 1-.053.009H.265V.347h.099z"/>
  </symbol>
  <use xlink:href="#S" fill="#fff" transform="matrix(14 0 0 -14 194.156 611.153)"/>
  <use xlink:href="#B" fill="#fff" transform="matrix(14 0 0 -14 203.312 611.377)"/>
  <use xlink:href="#E" fill="#fff" transform="matrix(14 0 0 -14 212.566 611.153)"/>
  <use xlink:href="#E" fill="#fff" transform="matrix(14 0 0 -14 221.064 611.153)"/>
  <use xlink:href="#F" fill="#fff" transform="matrix(14 0 0 -14 229.002 611.167)"/>
  <use xlink:href="#P" fill="#fff" transform="matrix(14 0 0 -14 233.244 611.167)"/>
  <use xlink:href="#C" fill="#fff" transform="matrix(14 0 0 -14 244.948 611.405)"/>
  <use xlink:href="#D" fill="#fff" transform="matrix(14 0 0 -14 253.726 611.167)"/>
  <use xlink:href="#N" fill="#fff" transform="matrix(14 0 0 -14 262.49 611.167)"/>
  <use xlink:href="#K" fill="#fff" transform="matrix(14 0 0 -14 267.18 611.377)"/>
  <use xlink:href="#L" fill="#fff" transform="matrix(14 0 0 -14 277.148 611.28)"/>
  <use xlink:href="#J" fill="#fff" transform="matrix(14 0 0 -14 286.43 611.461)"/>
  <use xlink:href="#F" fill="#fff" transform="matrix(14 0 0 -14 294.2 611.167)"/>
  <use xlink:href="#A" fill="#fff" transform="matrix(14 0 0 -14 298.442 611.153)"/>
  <use xlink:href="#L" fill="#fff" transform="matrix(14 0 0 -14 308.774 611.28)"/>
  <use xlink:href="#Q" fill="#fff" transform="matrix(14 0 0 -14 318.378 611.167)"/>
  <use xlink:href="#F" fill="#fff" transform="matrix(14 0 0 -14 327.268 611.167)"/>
  <use xlink:href="#T" fill="#fff" transform="matrix(14 0 0 -14 332.07 611.405)"/>
  <use xlink:href="#E" fill="#fff" transform="matrix(14 0 0 -14 342.864 611.153)"/>
  <use xlink:href="#A" fill="#fff" transform="matrix(14 0 0 -14 350.59 611.153)"/>
  <use xlink:href="#C" fill="#fff" transform="matrix(14 0 0 -14 360.153 611.405)"/>
  <use xlink:href="#D" fill="#fff" transform="matrix(14 0 0 -14 368.93 611.167)"/>
  <use xlink:href="#N" fill="#fff" transform="matrix(14 0 0 -14 377.695 611.167)"/>
  <use xlink:href="#K" fill="#fff" transform="matrix(14 0 0 -14 382.385 611.377)"/>
  <use xlink:href="#L" fill="#fff" transform="matrix(14 0 0 -14 392.353 611.28)"/>
  <use xlink:href="#J" fill="#fff" transform="matrix(14 0 0 -14 401.635 611.461)"/>
  <path d="M18 249.937h567v-13.424H18z"/>
  <symbol id="U">
    <path d="M.456.019a.068.068 0 0 1 .015.027.468.468 0 0 1 .019.113v.158L.332 0 .161.244.16.194A.786.786 0 0 1 .173.062.08.08 0 0 1 .195.019H0a.069.069 0 0 1 .015.026.468.468 0 0 1 .019.111v.231a.338.338 0 0 1-.019.11A.068.068 0 0 1 0 .524h.203L.357.333l.096.191h.264A.08.08 0 0 1 .701.498.27.27 0 0 1 .685.421.614.614 0 0 1 .684.39V.161L.685.127A.468.468 0 0 1 .701.046.078.078 0 0 1 .717.019H.456z"/>
  </symbol>
  <symbol id="V">
    <path d="M.356.505a.272.272 0 0 0 .073-.01.186.186 0 0 0 .066-.03.154.154 0 0 0 .066-.128.177.177 0 0 0-.069-.144A.23.23 0 0 0 .42.156.287.287 0 0 0 .337.144h-.11L.229.109A.35.35 0 0 1 .244.028.064.064 0 0 1 .261 0H0a.068.068 0 0 1 .015.027.228.228 0 0 1 .016.078.338.338 0 0 1 .002.032v.229c0 .009 0 .02-.002.033a.273.273 0 0 1-.016.079A.068.068 0 0 1 0 .505h.356M.307.283A.14.14 0 0 1 .33.285a.078.078 0 0 1 .023.007.04.04 0 0 1 .017.014.038.038 0 0 1 .007.024.028.028 0 0 1-.008.021.051.051 0 0 1-.019.012.09.09 0 0 1-.024.005.135.135 0 0 1-.022.002H.227V.283h.08z"/>
  </symbol>
  <symbol id="W">
    <path d="M.422.185A.082.082 0 0 1 .41.226a.089.089 0 0 1-.029.033h.24A.082.082 0 0 1 .604.225.16.16 0 0 1 .599.186V0a.523.523 0 0 1-.068.029.476.476 0 0 1-.072.02.72.72 0 0 1-.105-.038.522.522 0 0 0-.147.021.324.324 0 0 0-.141.084.273.273 0 0 0-.048.068.23.23 0 0 0 .036.236.351.351 0 0 0 .204.119.422.422 0 0 0 .25-.027.193.193 0 0 0 .047-.029V.29a.385.385 0 0 1-.047.052.339.339 0 0 1-.054.044.266.266 0 0 1-.062.03.217.217 0 0 1-.069.011C.288.427.262.416.245.394A.138.138 0 0 1 .221.309.199.199 0 0 1 .276.166a.185.185 0 0 1 .14-.057h.006v.076z"/>
  </symbol>
  <symbol id="X">
    <path d="M.709.007A.344.344 0 0 0 .514.03a.5.5 0 0 0-.079.046A1.899 1.899 0 0 0 .259.22a3.086 3.086 0 0 0-.07.065V.182a1.051 1.051 0 0 1 .007-.09.505.505 0 0 1 .012-.049.082.082 0 0 1 .02-.033H0a.074.074 0 0 1 .019.033.473.473 0 0 1 .021.138v.252a.454.454 0 0 1-.021.132A.074.074 0 0 1 0 .597h.237l.055-.07A3.725 3.725 0 0 1 .444.353a.404.404 0 0 1 .07-.057v.13a.49.49 0 0 1-.02.137.074.074 0 0 1-.019.033h.227a.082.082 0 0 1-.02-.033.44.44 0 0 1-.02-.135V.21L.66.162C.66.142.66.121.662.1A.264.264 0 0 1 .676.04.054.054 0 0 1 .709.007z"/>
  </symbol>
  <use xlink:href="#y" fill="#fff" transform="matrix(14 0 0 -14 240.587 247.308)"/>
  <use xlink:href="#A" fill="#fff" transform="matrix(14 0 0 -14 250.597 247)"/>
  <use xlink:href="#U" fill="#fff" transform="matrix(14 0 0 -14 260.929 247.28)"/>
  <use xlink:href="#V" fill="#fff" transform="matrix(14 0 0 -14 272.087 247.014)"/>
  <use xlink:href="#A" fill="#fff" transform="matrix(14 0 0 -14 279.199 247)"/>
  <use xlink:href="#N" fill="#fff" transform="matrix(14 0 0 -14 289.53 247.014)"/>
  <use xlink:href="#W" fill="#fff" transform="matrix(14 0 0 -14 294.22 247.434)"/>
  <use xlink:href="#L" fill="#fff" transform="matrix(14 0 0 -14 303.755 247.126)"/>
  <use xlink:href="#F" fill="#fff" transform="matrix(14 0 0 -14 312.799 247.014)"/>
  <use xlink:href="#X" fill="#fff" transform="matrix(14 0 0 -14 317.6 247.158)"/>
  <use xlink:href="#K" fill="#fff" transform="matrix(14 0 0 -14 328.367 247.224)"/>
  <use xlink:href="#D" fill="#fff" transform="matrix(14 0 0 -14 337.985 247.014)"/>
  <use xlink:href="#E" fill="#fff" transform="matrix(14 0 0 -14 346.749 247)"/>
  <use xlink:href="#J" fill="#fff" transform="matrix(14 0 0 -14 354.925 247.308)"/>
  <path fill="#fff" d="M21.741 442.242h98.336v-22.899H21.741z"/>
  <path fill="none" stroke="#000" d="M21.741 442.242h98.336v-22.899H21.741z"/>
  <path fill="#fff" d="M264.325 442.242h34.405v-22.899h-34.405z"/>
  <path fill="none" stroke="#000" d="M264.325 442.242h34.405v-22.899h-34.405z"/>
  <path fill="#fff" d="M157.98 442.242h103.708v-22.899H157.98z"/>
  <path fill="none" stroke="#000" d="M157.98 442.242h103.708v-22.899H157.98z"/>
  <path fill="#fff" d="M21.741 475.256H298.73v-31.181H21.741z"/>
  <path fill="none" stroke="#000" d="M21.741 475.256H298.73v-31.181H21.741z"/>
  <use xlink:href="#c" transform="matrix(7 0 0 -7 159.732 426.839)"/>
  <use xlink:href="#f" transform="matrix(7 0 0 -7 162.833 426.839)"/>
  <use xlink:href="#b" transform="matrix(7 0 0 -7 165.801 426.839)"/>
  <use xlink:href="#i" transform="matrix(7 0 0 -7 169.616 426.839)"/>
  <use xlink:href="#c" transform="matrix(7 0 0 -7 171.044 426.839)"/>
  <use xlink:href="#g" transform="matrix(7 0 0 -7 173.886 426.909)"/>
  <use xlink:href="#e" transform="matrix(7 0 0 -7 268.183 426.839)"/>
  <use xlink:href="#b" transform="matrix(7 0 0 -7 270.815 426.839)"/>
  <use xlink:href="#s" transform="matrix(7 0 0 -7 274.35 426.909)"/>
  <use xlink:href="#h" transform="matrix(7 0 0 -7 277.808 426.839)"/>
  <use xlink:href="#p" transform="matrix(7 0 0 -7 24.268 426.839)"/>
  <use xlink:href="#b" transform="matrix(7 0 0 -7 27.474 426.839)"/>
  <use xlink:href="#w" transform="matrix(7 0 0 -7 31.226 426.839)"/>
  <use xlink:href="#h" transform="matrix(7 0 0 -7 35.741 426.839)"/>
  <use xlink:href="#k" transform="matrix(7 0 0 -7 24.268 451.066)"/>
  <use xlink:href="#h" transform="matrix(7 0 0 -7 27.761 451.066)"/>
  <use xlink:href="#g" transform="matrix(7 0 0 -7 30.414 451.136)"/>
  <use xlink:href="#a" transform="matrix(7 0 0 -7 33.445 451.136)"/>
  <use xlink:href="#f" transform="matrix(7 0 0 -7 36.56 451.066)"/>
  <use xlink:href="#i" transform="matrix(7 0 0 -7 39.906 451.066)"/>
  <use xlink:href="#e" transform="matrix(7 0 0 -7 41.621 451.066)"/>
  <use xlink:href="#c" transform="matrix(7 0 0 -7 44.561 451.066)"/>
  <use xlink:href="#i" transform="matrix(7 0 0 -7 47.725 451.066)"/>
  <use xlink:href="#r" transform="matrix(7 0 0 -7 49.328 451.136)"/>
  <use xlink:href="#p" transform="matrix(7 0 0 -7 52.821 451.066)"/>
  <path fill="#fff" d="M121.076 442.242h35.721v-16.671h-35.721z"/>
  <path fill="none" stroke="#000" stroke-linejoin="round" d="M121.076 442.242h35.721v-16.671h-35.721z"/>
  <path d="M120.576 426.04h36.904v-7.196h-36.904z"/>
  <symbol id="Y">
    <path d="M.193.152h.215L.447 0h.157L.389.725H.215L0 0h.155l.038.152m.106.43h.002L.38.266H.221l.078.316z"/>
  </symbol>
  <symbol id="Z">
    <path d="M.24.745C.094.745 0 .651 0 .496v-.26C0 .093.094 0 .24 0c.122 0 .197.056.223.17L.35.208C.335.147.305.122.253.122.186.122.155.166.155.237v.259c0 .079.031.122.098.122C.305.618.337.589.35.536l.112.041A.223.223 0 0 1 .24.745z"/>
  </symbol>
  <symbol id="aa">
    <path d="M0 .725V.592h.162V0h.153v.592h.162v.133H0z"/>
  </symbol>
  <symbol id="ab">
    <path d="M0 .725V0h.153v.725H0z"/>
  </symbol>
  <symbol id="ac">
    <path d="M.258.745C.091.745 0 .645 0 .489V.256C0 .1.091 0 .258 0s.258.1.258.256v.233c0 .156-.091.256-.258.256M.362.256C.362.162.33.123.258.123S.153.162.153.256v.233c0 .092.033.129.105.129S.362.581.362.489V.256z"/>
  </symbol>
  <symbol id="ad">
    <path d="M0 .725V0h.135v.43h.002L.392 0h.106v.725H.363V.312H.361L.115.725H0z"/>
  </symbol>
  <symbol id="ae">
    <path d="M.23.745C.096.745.012.657.012.546c0-.23.314-.215.314-.353C.326.144.299.12.238.12.188.12.136.15.115.214L0 .174A.24.24 0 0 1 .239 0C.379 0 .47.076.47.211c0 .23-.307.224-.307.344 0 .042.022.069.082.069C.297.624.34.597.361.54l.104.046A.235.235 0 0 1 .23.745z"/>
  </symbol>
  <use xlink:href="#Y" fill="#fff" transform="matrix(6 0 0 -6 127.892 424.893)"/>
  <use xlink:href="#Z" fill="#fff" transform="matrix(6 0 0 -6 131.744 424.953)"/>
  <use xlink:href="#aa" fill="#fff" transform="matrix(6 0 0 -6 134.792 424.893)"/>
  <use xlink:href="#ab" fill="#fff" transform="matrix(6 0 0 -6 138.236 424.893)"/>
  <use xlink:href="#ac" fill="#fff" transform="matrix(6 0 0 -6 139.916 424.953)"/>
  <use xlink:href="#ad" fill="#fff" transform="matrix(6 0 0 -6 143.708 424.893)"/>
  <use xlink:href="#ae" fill="#fff" transform="matrix(6 0 0 -6 147.248 424.953)"/>
  <path fill="#fff" d="M305.441 442.242h97.596v-22.899h-97.596z"/>
  <path fill="none" stroke="#000" d="M305.441 442.242h97.596v-22.899h-97.596z"/>
  <path fill="#fff" d="M546.219 442.242h34.141v-22.899h-34.141z"/>
  <path fill="none" stroke="#000" d="M546.219 442.242h34.141v-22.899h-34.141z"/>
  <path fill="#fff" d="M440.666 442.242h102.928v-22.899H440.666z"/>
  <path fill="none" stroke="#000" d="M440.666 442.242h102.928v-22.899H440.666z"/>
  <path fill="#fff" d="M305.441 475.256H580.36v-31.181H305.441z"/>
  <path fill="none" stroke="#000" d="M305.441 475.256H580.36v-31.181H305.441z"/>
  <use xlink:href="#c" transform="matrix(7 0 0 -7 442.402 426.839)"/>
  <use xlink:href="#f" transform="matrix(7 0 0 -7 445.503 426.839)"/>
  <use xlink:href="#b" transform="matrix(7 0 0 -7 448.47 426.839)"/>
  <use xlink:href="#i" transform="matrix(7 0 0 -7 452.286 426.839)"/>
  <use xlink:href="#c" transform="matrix(7 0 0 -7 453.714 426.839)"/>
  <use xlink:href="#g" transform="matrix(7 0 0 -7 456.556 426.909)"/>
  <use xlink:href="#e" transform="matrix(7 0 0 -7 550.048 426.839)"/>
  <use xlink:href="#b" transform="matrix(7 0 0 -7 552.68 426.839)"/>
  <use xlink:href="#s" transform="matrix(7 0 0 -7 556.215 426.909)"/>
  <use xlink:href="#h" transform="matrix(7 0 0 -7 559.673 426.839)"/>
  <use xlink:href="#p" transform="matrix(7 0 0 -7 307.946 426.839)"/>
  <use xlink:href="#b" transform="matrix(7 0 0 -7 311.152 426.839)"/>
  <use xlink:href="#w" transform="matrix(7 0 0 -7 314.904 426.839)"/>
  <use xlink:href="#h" transform="matrix(7 0 0 -7 319.419 426.839)"/>
  <use xlink:href="#k" transform="matrix(7 0 0 -7 307.946 451.066)"/>
  <use xlink:href="#h" transform="matrix(7 0 0 -7 311.439 451.066)"/>
  <use xlink:href="#g" transform="matrix(7 0 0 -7 314.092 451.136)"/>
  <use xlink:href="#a" transform="matrix(7 0 0 -7 317.123 451.136)"/>
  <use xlink:href="#f" transform="matrix(7 0 0 -7 320.238 451.066)"/>
  <use xlink:href="#i" transform="matrix(7 0 0 -7 323.584 451.066)"/>
  <use xlink:href="#e" transform="matrix(7 0 0 -7 325.299 451.066)"/>
  <use xlink:href="#c" transform="matrix(7 0 0 -7 328.239 451.066)"/>
  <use xlink:href="#i" transform="matrix(7 0 0 -7 331.403 451.066)"/>
  <use xlink:href="#r" transform="matrix(7 0 0 -7 333.006 451.136)"/>
  <use xlink:href="#p" transform="matrix(7 0 0 -7 336.499 451.066)"/>
  <path fill="#fff" d="M404.036 442.242h35.447v-16.671h-35.447z"/>
  <path fill="none" stroke="#000" stroke-linejoin="round" d="M404.036 442.242h35.447v-16.671h-35.447z"/>
  <path d="M403.536 426.04h36.629v-7.196h-36.629z"/>
  <use xlink:href="#Y" fill="#fff" transform="matrix(6 0 0 -6 410.715 424.893)"/>
  <use xlink:href="#Z" fill="#fff" transform="matrix(6 0 0 -6 414.567 424.953)"/>
  <use xlink:href="#aa" fill="#fff" transform="matrix(6 0 0 -6 417.615 424.893)"/>
  <use xlink:href="#ab" fill="#fff" transform="matrix(6 0 0 -6 421.06 424.893)"/>
  <use xlink:href="#ac" fill="#fff" transform="matrix(6 0 0 -6 422.74 424.953)"/>
  <use xlink:href="#ad" fill="#fff" transform="matrix(6 0 0 -6 426.531 424.893)"/>
  <use xlink:href="#ae" fill="#fff" transform="matrix(6 0 0 -6 430.071 424.953)"/>
  <path fill="#fff" d="M21.741 501.592h98.336v-22.899H21.741z"/>
  <path fill="none" stroke="#000" d="M21.741 501.592h98.336v-22.899H21.741z"/>
  <path fill="#fff" d="M264.325 501.592h34.405v-22.899h-34.405z"/>
  <path fill="none" stroke="#000" d="M264.325 501.592h34.405v-22.899h-34.405z"/>
  <path fill="#fff" d="M157.98 501.592h103.708v-22.899H157.98z"/>
  <path fill="none" stroke="#000" d="M157.98 501.592h103.708v-22.899H157.98z"/>
  <path fill="#fff" d="M21.741 534.605H298.73v-31.181H21.741z"/>
  <path fill="none" stroke="#000" d="M21.741 534.605H298.73v-31.181H21.741z"/>
  <use xlink:href="#c" transform="matrix(7 0 0 -7 159.732 486.188)"/>
  <use xlink:href="#f" transform="matrix(7 0 0 -7 162.833 486.188)"/>
  <use xlink:href="#b" transform="matrix(7 0 0 -7 165.801 486.188)"/>
  <use xlink:href="#i" transform="matrix(7 0 0 -7 169.616 486.188)"/>
  <use xlink:href="#c" transform="matrix(7 0 0 -7 171.044 486.188)"/>
  <use xlink:href="#g" transform="matrix(7 0 0 -7 173.886 486.258)"/>
  <use xlink:href="#e" transform="matrix(7 0 0 -7 268.183 486.188)"/>
  <use xlink:href="#b" transform="matrix(7 0 0 -7 270.815 486.188)"/>
  <use xlink:href="#s" transform="matrix(7 0 0 -7 274.35 486.258)"/>
  <use xlink:href="#h" transform="matrix(7 0 0 -7 277.808 486.188)"/>
  <use xlink:href="#p" transform="matrix(7 0 0 -7 24.268 486.188)"/>
  <use xlink:href="#b" transform="matrix(7 0 0 -7 27.474 486.188)"/>
  <use xlink:href="#w" transform="matrix(7 0 0 -7 31.226 486.188)"/>
  <use xlink:href="#h" transform="matrix(7 0 0 -7 35.741 486.188)"/>
  <use xlink:href="#k" transform="matrix(7 0 0 -7 24.268 510.415)"/>
  <use xlink:href="#h" transform="matrix(7 0 0 -7 27.761 510.415)"/>
  <use xlink:href="#g" transform="matrix(7 0 0 -7 30.414 510.485)"/>
  <use xlink:href="#a" transform="matrix(7 0 0 -7 33.445 510.485)"/>
  <use xlink:href="#f" transform="matrix(7 0 0 -7 36.56 510.415)"/>
  <use xlink:href="#i" transform="matrix(7 0 0 -7 39.906 510.415)"/>
  <use xlink:href="#e" transform="matrix(7 0 0 -7 41.621 510.415)"/>
  <use xlink:href="#c" transform="matrix(7 0 0 -7 44.561 510.415)"/>
  <use xlink:href="#i" transform="matrix(7 0 0 -7 47.725 510.415)"/>
  <use xlink:href="#r" transform="matrix(7 0 0 -7 49.328 510.485)"/>
  <use xlink:href="#p" transform="matrix(7 0 0 -7 52.821 510.415)"/>
  <path fill="#fff" d="M121.076 501.592h35.721v-16.671h-35.721z"/>
  <path fill="none" stroke="#000" stroke-linejoin="round" d="M121.076 501.592h35.721v-16.671h-35.721z"/>
  <path d="M120.576 485.39h36.904v-7.196h-36.904z"/>
  <use xlink:href="#Y" fill="#fff" transform="matrix(6 0 0 -6 127.892 484.242)"/>
  <use xlink:href="#Z" fill="#fff" transform="matrix(6 0 0 -6 131.744 484.302)"/>
  <use xlink:href="#aa" fill="#fff" transform="matrix(6 0 0 -6 134.792 484.242)"/>
  <use xlink:href="#ab" fill="#fff" transform="matrix(6 0 0 -6 138.236 484.242)"/>
  <use xlink:href="#ac" fill="#fff" transform="matrix(6 0 0 -6 139.916 484.302)"/>
  <use xlink:href="#ad" fill="#fff" transform="matrix(6 0 0 -6 143.708 484.242)"/>
  <use xlink:href="#ae" fill="#fff" transform="matrix(6 0 0 -6 147.248 484.302)"/>
  <path fill="#fff" d="M305.441 501.592h97.596v-22.899h-97.596z"/>
  <path fill="none" stroke="#000" d="M305.441 501.592h97.596v-22.899h-97.596z"/>
  <path fill="#fff" d="M546.219 501.592h34.141v-22.899h-34.141z"/>
  <path fill="none" stroke="#000" d="M546.219 501.592h34.141v-22.899h-34.141z"/>
  <path fill="#fff" d="M440.666 501.592h102.928v-22.899H440.666z"/>
  <path fill="none" stroke="#000" d="M440.666 501.592h102.928v-22.899H440.666z"/>
  <path fill="#fff" d="M305.441 534.605H580.36v-31.181H305.441z"/>
  <path fill="none" stroke="#000" d="M305.441 534.605H580.36v-31.181H305.441z"/>
  <use xlink:href="#c" transform="matrix(7 0 0 -7 442.402 486.188)"/>
  <use xlink:href="#f" transform="matrix(7 0 0 -7 445.503 486.188)"/>
  <use xlink:href="#b" transform="matrix(7 0 0 -7 448.47 486.188)"/>
  <use xlink:href="#i" transform="matrix(7 0 0 -7 452.286 486.188)"/>
  <use xlink:href="#c" transform="matrix(7 0 0 -7 453.714 486.188)"/>
  <use xlink:href="#g" transform="matrix(7 0 0 -7 456.556 486.258)"/>
  <use xlink:href="#e" transform="matrix(7 0 0 -7 550.048 486.188)"/>
  <use xlink:href="#b" transform="matrix(7 0 0 -7 552.68 486.188)"/>
  <use xlink:href="#s" transform="matrix(7 0 0 -7 556.215 486.258)"/>
  <use xlink:href="#h" transform="matrix(7 0 0 -7 559.673 486.188)"/>
  <use xlink:href="#p" transform="matrix(7 0 0 -7 307.946 486.188)"/>
  <use xlink:href="#b" transform="matrix(7 0 0 -7 311.152 486.188)"/>
  <use xlink:href="#w" transform="matrix(7 0 0 -7 314.904 486.188)"/>
  <use xlink:href="#h" transform="matrix(7 0 0 -7 319.419 486.188)"/>
  <use xlink:href="#k" transform="matrix(7 0 0 -7 307.946 510.415)"/>
  <use xlink:href="#h" transform="matrix(7 0 0 -7 311.439 510.415)"/>
  <use xlink:href="#g" transform="matrix(7 0 0 -7 314.092 510.485)"/>
  <use xlink:href="#a" transform="matrix(7 0 0 -7 317.123 510.485)"/>
  <use xlink:href="#f" transform="matrix(7 0 0 -7 320.238 510.415)"/>
  <use xlink:href="#i" transform="matrix(7 0 0 -7 323.584 510.415)"/>
  <use xlink:href="#e" transform="matrix(7 0 0 -7 325.299 510.415)"/>
  <use xlink:href="#c" transform="matrix(7 0 0 -7 328.239 510.415)"/>
  <use xlink:href="#i" transform="matrix(7 0 0 -7 331.403 510.415)"/>
  <use xlink:href="#r" transform="matrix(7 0 0 -7 333.006 510.485)"/>
  <use xlink:href="#p" transform="matrix(7 0 0 -7 336.499 510.415)"/>
  <path fill="#fff" d="M404.036 501.592h35.447v-16.671h-35.447z"/>
  <path fill="none" stroke="#000" stroke-linejoin="round" d="M404.036 501.592h35.447v-16.671h-35.447z"/>
  <path d="M403.536 485.39h36.629v-7.196h-36.629z"/>
  <use xlink:href="#Y" fill="#fff" transform="matrix(6 0 0 -6 410.715 484.242)"/>
  <use xlink:href="#Z" fill="#fff" transform="matrix(6 0 0 -6 414.567 484.302)"/>
  <use xlink:href="#aa" fill="#fff" transform="matrix(6 0 0 -6 417.615 484.242)"/>
  <use xlink:href="#ab" fill="#fff" transform="matrix(6 0 0 -6 421.06 484.242)"/>
  <use xlink:href="#ac" fill="#fff" transform="matrix(6 0 0 -6 422.74 484.302)"/>
  <use xlink:href="#ad" fill="#fff" transform="matrix(6 0 0 -6 426.531 484.242)"/>
  <use xlink:href="#ae" fill="#fff" transform="matrix(6 0 0 -6 430.071 484.302)"/>
  <path fill="#fff" d="M21.741 560.941h98.336v-22.899H21.741z"/>
  <path fill="none" stroke="#000" d="M21.741 560.941h98.336v-22.899H21.741z"/>
  <path fill="#fff" d="M264.325 560.941h34.405v-22.899h-34.405z"/>
  <path fill="none" stroke="#000" d="M264.325 560.941h34.405v-22.899h-34.405z"/>
  <path fill="#fff" d="M157.98 560.941h103.708v-22.899H157.98z"/>
  <path fill="none" stroke="#000" d="M157.98 560.941h103.708v-22.899H157.98z"/>
  <path fill="#fff" d="M21.741 593.955H298.73v-31.181H21.741z"/>
  <path fill="none" stroke="#000" d="M21.741 593.955H298.73v-31.181H21.741z"/>
  <use xlink:href="#c" transform="matrix(7 0 0 -7 159.732 545.538)"/>
  <use xlink:href="#f" transform="matrix(7 0 0 -7 162.833 545.538)"/>
  <use xlink:href="#b" transform="matrix(7 0 0 -7 165.801 545.538)"/>
  <use xlink:href="#i" transform="matrix(7 0 0 -7 169.616 545.538)"/>
  <use xlink:href="#c" transform="matrix(7 0 0 -7 171.044 545.538)"/>
  <use xlink:href="#g" transform="matrix(7 0 0 -7 173.886 545.608)"/>
  <use xlink:href="#e" transform="matrix(7 0 0 -7 268.183 545.538)"/>
  <use xlink:href="#b" transform="matrix(7 0 0 -7 270.815 545.538)"/>
  <use xlink:href="#s" transform="matrix(7 0 0 -7 274.35 545.608)"/>
  <use xlink:href="#h" transform="matrix(7 0 0 -7 277.808 545.538)"/>
  <use xlink:href="#p" transform="matrix(7 0 0 -7 24.268 545.538)"/>
  <use xlink:href="#b" transform="matrix(7 0 0 -7 27.474 545.538)"/>
  <use xlink:href="#w" transform="matrix(7 0 0 -7 31.226 545.538)"/>
  <use xlink:href="#h" transform="matrix(7 0 0 -7 35.741 545.538)"/>
  <use xlink:href="#k" transform="matrix(7 0 0 -7 24.268 569.765)"/>
  <use xlink:href="#h" transform="matrix(7 0 0 -7 27.761 569.765)"/>
  <use xlink:href="#g" transform="matrix(7 0 0 -7 30.414 569.835)"/>
  <use xlink:href="#a" transform="matrix(7 0 0 -7 33.445 569.835)"/>
  <use xlink:href="#f" transform="matrix(7 0 0 -7 36.56 569.765)"/>
  <use xlink:href="#i" transform="matrix(7 0 0 -7 39.906 569.765)"/>
  <use xlink:href="#e" transform="matrix(7 0 0 -7 41.621 569.765)"/>
  <use xlink:href="#c" transform="matrix(7 0 0 -7 44.561 569.765)"/>
  <use xlink:href="#i" transform="matrix(7 0 0 -7 47.725 569.765)"/>
  <use xlink:href="#r" transform="matrix(7 0 0 -7 49.328 569.835)"/>
  <use xlink:href="#p" transform="matrix(7 0 0 -7 52.821 569.765)"/>
  <path fill="#fff" d="M121.076 560.941h35.721V544.27h-35.721z"/>
  <path fill="none" stroke="#000" stroke-linejoin="round" d="M121.076 560.941h35.721V544.27h-35.721z"/>
  <path d="M120.576 544.739h36.904v-7.196h-36.904z"/>
  <use xlink:href="#Y" fill="#fff" transform="matrix(6 0 0 -6 127.892 543.592)"/>
  <use xlink:href="#Z" fill="#fff" transform="matrix(6 0 0 -6 131.744 543.652)"/>
  <use xlink:href="#aa" fill="#fff" transform="matrix(6 0 0 -6 134.792 543.592)"/>
  <use xlink:href="#ab" fill="#fff" transform="matrix(6 0 0 -6 138.236 543.592)"/>
  <use xlink:href="#ac" fill="#fff" transform="matrix(6 0 0 -6 139.916 543.652)"/>
  <use xlink:href="#ad" fill="#fff" transform="matrix(6 0 0 -6 143.708 543.592)"/>
  <use xlink:href="#ae" fill="#fff" transform="matrix(6 0 0 -6 147.248 543.652)"/>
  <path fill="#fff" d="M305.441 560.941h97.596v-22.899h-97.596z"/>
  <path fill="none" stroke="#000" d="M305.441 560.941h97.596v-22.899h-97.596z"/>
  <path fill="#fff" d="M546.219 560.941h34.141v-22.899h-34.141z"/>
  <path fill="none" stroke="#000" d="M546.219 560.941h34.141v-22.899h-34.141z"/>
  <path fill="#fff" d="M440.666 560.941h102.928v-22.899H440.666z"/>
  <path fill="none" stroke="#000" d="M440.666 560.941h102.928v-22.899H440.666z"/>
  <path fill="#fff" d="M305.441 593.955H580.36v-31.181H305.441z"/>
  <path fill="none" stroke="#000" d="M305.441 593.955H580.36v-31.181H305.441z"/>
  <use xlink:href="#c" transform="matrix(7 0 0 -7 442.402 545.538)"/>
  <use xlink:href="#f" transform="matrix(7 0 0 -7 445.503 545.538)"/>
  <use xlink:href="#b" transform="matrix(7 0 0 -7 448.47 545.538)"/>
  <use xlink:href="#i" transform="matrix(7 0 0 -7 452.286 545.538)"/>
  <use xlink:href="#c" transform="matrix(7 0 0 -7 453.714 545.538)"/>
  <use xlink:href="#g" transform="matrix(7 0 0 -7 456.556 545.608)"/>
  <use xlink:href="#e" transform="matrix(7 0 0 -7 550.048 545.538)"/>
  <use xlink:href="#b" transform="matrix(7 0 0 -7 552.68 545.538)"/>
  <use xlink:href="#s" transform="matrix(7 0 0 -7 556.215 545.608)"/>
  <use xlink:href="#h" transform="matrix(7 0 0 -7 559.673 545.538)"/>
  <use xlink:href="#p" transform="matrix(7 0 0 -7 307.946 545.538)"/>
  <use xlink:href="#b" transform="matrix(7 0 0 -7 311.152 545.538)"/>
  <use xlink:href="#w" transform="matrix(7 0 0 -7 314.904 545.538)"/>
  <use xlink:href="#h" transform="matrix(7 0 0 -7 319.419 545.538)"/>
  <use xlink:href="#k" transform="matrix(7 0 0 -7 307.946 569.765)"/>
  <use xlink:href="#h" transform="matrix(7 0 0 -7 311.439 569.765)"/>
  <use xlink:href="#g" transform="matrix(7 0 0 -7 314.092 569.835)"/>
  <use xlink:href="#a" transform="matrix(7 0 0 -7 317.123 569.835)"/>
  <use xlink:href="#f" transform="matrix(7 0 0 -7 320.238 569.765)"/>
  <use xlink:href="#i" transform="matrix(7 0 0 -7 323.584 569.765)"/>
  <use xlink:href="#e" transform="matrix(7 0 0 -7 325.299 569.765)"/>
  <use xlink:href="#c" transform="matrix(7 0 0 -7 328.239 569.765)"/>
  <use xlink:href="#i" transform="matrix(7 0 0 -7 331.403 569.765)"/>
  <use xlink:href="#r" transform="matrix(7 0 0 -7 333.006 569.835)"/>
  <use xlink:href="#p" transform="matrix(7 0 0 -7 336.499 569.765)"/>
  <path fill="#fff" d="M404.036 560.941h35.447V544.27h-35.447z"/>
  <path fill="none" stroke="#000" stroke-linejoin="round" d="M404.036 560.941h35.447V544.27h-35.447z"/>
  <path d="M403.536 544.739h36.629v-7.196h-36.629z"/>
  <use xlink:href="#Y" fill="#fff" transform="matrix(6 0 0 -6 410.715 543.592)"/>
  <use xlink:href="#Z" fill="#fff" transform="matrix(6 0 0 -6 414.567 543.652)"/>
  <use xlink:href="#aa" fill="#fff" transform="matrix(6 0 0 -6 417.615 543.592)"/>
  <use xlink:href="#ab" fill="#fff" transform="matrix(6 0 0 -6 421.06 543.592)"/>
  <use xlink:href="#ac" fill="#fff" transform="matrix(6 0 0 -6 422.74 543.652)"/>
  <use xlink:href="#ad" fill="#fff" transform="matrix(6 0 0 -6 426.531 543.592)"/>
  <use xlink:href="#ae" fill="#fff" transform="matrix(6 0 0 -6 430.071 543.652)"/>
  <path fill="#fff" d="M21.741 639.77h94.939v-21.439H21.741z"/>
  <path fill="none" stroke="#000" d="M21.741 639.77h94.939v-21.439H21.741z"/>
  <path fill="#fff" d="M264.325 639.77h34.405v-21.439h-34.405z"/>
  <path fill="none" stroke="#000" d="M264.325 639.77h34.405v-21.439h-34.405z"/>
  <path d="M116.6 639.77h40.38v-21.439H116.6z"/>
  <path fill="none" stroke="#000" d="M116.6 639.77h40.38v-21.439H116.6z"/>
  <path fill="#fff" d="M157.98 639.77h103.708v-21.439H157.98z"/>
  <path fill="none" stroke="#000" d="M157.98 639.77h103.708v-21.439H157.98z"/>
  <path fill="#fff" d="M21.741 687.45H298.73v-45.898H21.741z"/>
  <path fill="none" stroke="#000" d="M21.741 687.45H298.73v-45.898H21.741z"/>
  <use xlink:href="#c" transform="matrix(7 0 0 -7 159.585 625.687)"/>
  <use xlink:href="#f" transform="matrix(7 0 0 -7 162.686 625.687)"/>
  <use xlink:href="#b" transform="matrix(7 0 0 -7 165.654 625.687)"/>
  <use xlink:href="#i" transform="matrix(7 0 0 -7 169.469 625.687)"/>
  <use xlink:href="#c" transform="matrix(7 0 0 -7 170.897 625.687)"/>
  <use xlink:href="#g" transform="matrix(7 0 0 -7 173.739 625.757)"/>
  <use xlink:href="#e" transform="matrix(7 0 0 -7 268.183 625.687)"/>
  <use xlink:href="#b" transform="matrix(7 0 0 -7 270.815 625.687)"/>
  <use xlink:href="#s" transform="matrix(7 0 0 -7 274.35 625.757)"/>
  <use xlink:href="#h" transform="matrix(7 0 0 -7 277.807 625.687)"/>
  <use xlink:href="#p" transform="matrix(7 0 0 -7 24.268 625.687)"/>
  <use xlink:href="#b" transform="matrix(7 0 0 -7 27.474 625.687)"/>
  <use xlink:href="#w" transform="matrix(7 0 0 -7 31.226 625.687)"/>
  <use xlink:href="#h" transform="matrix(7 0 0 -7 35.74 625.687)"/>
  <use xlink:href="#c" transform="matrix(7 0 0 -7 24.89 649.914)"/>
  <use xlink:href="#f" transform="matrix(7 0 0 -7 27.992 649.914)"/>
  <use xlink:href="#i" transform="matrix(7 0 0 -7 31.338 649.914)"/>
  <use xlink:href="#s" transform="matrix(7 0 0 -7 32.94 649.984)"/>
  <use xlink:href="#s" transform="matrix(7 0 0 -7 36.287 649.984)"/>
  <use xlink:href="#h" transform="matrix(7 0 0 -7 39.745 649.914)"/>
  <use xlink:href="#f" transform="matrix(7 0 0 -7 42.657 649.914)"/>
  <use xlink:href="#t" transform="matrix(7 0 0 -7 45.549 649.914)"/>
  <use xlink:href="#k" transform="matrix(7 0 0 -7 25.178 659.917)"/>
  <use xlink:href="#h" transform="matrix(7 0 0 -7 28.67 659.917)"/>
  <use xlink:href="#g" transform="matrix(7 0 0 -7 31.324 659.987)"/>
  <use xlink:href="#a" transform="matrix(7 0 0 -7 34.355 659.987)"/>
  <use xlink:href="#f" transform="matrix(7 0 0 -7 37.47 659.917)"/>
  <use xlink:href="#i" transform="matrix(7 0 0 -7 40.816 659.917)"/>
  <use xlink:href="#e" transform="matrix(7 0 0 -7 42.53 659.917)"/>
  <use xlink:href="#c" transform="matrix(7 0 0 -7 45.47 659.917)"/>
  <use xlink:href="#i" transform="matrix(7 0 0 -7 48.635 659.917)"/>
  <use xlink:href="#r" transform="matrix(7 0 0 -7 50.238 659.987)"/>
  <use xlink:href="#p" transform="matrix(7 0 0 -7 53.73 659.917)"/>
  <path fill="none" stroke="#d1d3d4" stroke-width=".5" d="M22.876 651.893h274.343"/>
  <path fill="#fff" d="M117.66 626.947h5.487v-5.487h-5.487zm0 9.32h5.487v-5.487h-5.487z"/>
  <symbol id="af">
    <path d="M0 .725V0h.154v.295h.233v.122H.154v.176h.271v.132H0z"/>
  </symbol>
  <symbol id="ag">
    <path d="M.345 0h.166L.358.317c.075.028.114.099.114.195 0 .13-.069.213-.232.213H0V0h.154v.284h.067L.345 0M.154.6h.082C.299.6.32.574.32.502.32.436.303.399.237.399H.154V.6z"/>
  </symbol>
  <symbol id="ah">
    <path d="M0 .725V0h.431v.13H.154v.184h.201V.43H.154v.163h.267v.132H0z"/>
  </symbol>
  <symbol id="ai">
    <path d="M0 0z"/>
  </symbol>
  <use xlink:href="#af" fill="#fff" transform="matrix(6 0 0 -6 124.674 626.402)"/>
  <use xlink:href="#ag" fill="#fff" transform="matrix(6 0 0 -6 127.728 626.402)"/>
  <use xlink:href="#ah" fill="#fff" transform="matrix(6 0 0 -6 131.166 626.402)"/>
  <use xlink:href="#ah" fill="#fff" transform="matrix(6 0 0 -6 134.25 626.402)"/>
  <use xlink:href="#ai" fill="#fff" transform="matrix(6 0 0 -6 136.92 626.402)"/>
  <use xlink:href="#Y" fill="#fff" transform="matrix(6 0 0 -6 138.048 626.402)"/>
  <use xlink:href="#Z" fill="#fff" transform="matrix(6 0 0 -6 141.78 626.462)"/>
  <use xlink:href="#aa" fill="#fff" transform="matrix(6 0 0 -6 144.708 626.402)"/>
  <use xlink:href="#ab" fill="#fff" transform="matrix(6 0 0 -6 148.032 626.402)"/>
  <use xlink:href="#ac" fill="#fff" transform="matrix(6 0 0 -6 149.592 626.462)"/>
  <use xlink:href="#ad" fill="#fff" transform="matrix(6 0 0 -6 153.264 626.402)"/>
  <use xlink:href="#ag" fill="#fff" transform="matrix(6 0 0 -6 124.914 635.684)"/>
  <use xlink:href="#ah" fill="#fff" transform="matrix(6 0 0 -6 128.232 635.684)"/>
  <use xlink:href="#Y" fill="#fff" transform="matrix(6 0 0 -6 130.842 635.684)"/>
  <use xlink:href="#Z" fill="#fff" transform="matrix(6 0 0 -6 134.454 635.744)"/>
  <use xlink:href="#aa" fill="#fff" transform="matrix(6 0 0 -6 137.262 635.684)"/>
  <use xlink:href="#ab" fill="#fff" transform="matrix(6 0 0 -6 140.466 635.684)"/>
  <use xlink:href="#ac" fill="#fff" transform="matrix(6 0 0 -6 141.906 635.744)"/>
  <use xlink:href="#ad" fill="#fff" transform="matrix(6 0 0 -6 145.458 635.684)"/>
  <path fill="#fff" d="M305.441 639.77h94.939v-21.439h-94.939z"/>
  <path fill="none" stroke="#000" d="M305.441 639.77h94.939v-21.439h-94.939z"/>
  <path fill="#fff" d="M548.025 639.77h34.405v-21.439h-34.405z"/>
  <path fill="none" stroke="#000" d="M548.025 639.77h34.405v-21.439h-34.405z"/>
  <path d="M400.3 639.77h40.38v-21.439H400.3z"/>
  <path fill="none" stroke="#000" d="M400.3 639.77h40.38v-21.439H400.3z"/>
  <path fill="#fff" d="M441.68 639.77h103.708v-21.439H441.68z"/>
  <path fill="none" stroke="#000" d="M441.68 639.77h103.708v-21.439H441.68z"/>
  <path fill="#fff" d="M305.441 687.45h276.99v-45.898H305.44z"/>
  <path fill="none" stroke="#000" d="M305.441 687.45h276.99v-45.898H305.44z"/>
  <use xlink:href="#c" transform="matrix(7 0 0 -7 443.285 625.687)"/>
  <use xlink:href="#f" transform="matrix(7 0 0 -7 446.386 625.687)"/>
  <use xlink:href="#b" transform="matrix(7 0 0 -7 449.354 625.687)"/>
  <use xlink:href="#i" transform="matrix(7 0 0 -7 453.169 625.687)"/>
  <use xlink:href="#c" transform="matrix(7 0 0 -7 454.597 625.687)"/>
  <use xlink:href="#g" transform="matrix(7 0 0 -7 457.439 625.757)"/>
  <use xlink:href="#e" transform="matrix(7 0 0 -7 551.883 625.687)"/>
  <use xlink:href="#b" transform="matrix(7 0 0 -7 554.515 625.687)"/>
  <use xlink:href="#s" transform="matrix(7 0 0 -7 558.05 625.757)"/>
  <use xlink:href="#h" transform="matrix(7 0 0 -7 561.507 625.687)"/>
  <use xlink:href="#p" transform="matrix(7 0 0 -7 307.968 625.687)"/>
  <use xlink:href="#b" transform="matrix(7 0 0 -7 311.174 625.687)"/>
  <use xlink:href="#w" transform="matrix(7 0 0 -7 314.926 625.687)"/>
  <use xlink:href="#h" transform="matrix(7 0 0 -7 319.441 625.687)"/>
  <use xlink:href="#c" transform="matrix(7 0 0 -7 308.591 649.914)"/>
  <use xlink:href="#f" transform="matrix(7 0 0 -7 311.692 649.914)"/>
  <use xlink:href="#i" transform="matrix(7 0 0 -7 315.038 649.914)"/>
  <use xlink:href="#s" transform="matrix(7 0 0 -7 316.641 649.984)"/>
  <use xlink:href="#s" transform="matrix(7 0 0 -7 319.987 649.984)"/>
  <use xlink:href="#h" transform="matrix(7 0 0 -7 323.445 649.914)"/>
  <use xlink:href="#f" transform="matrix(7 0 0 -7 326.357 649.914)"/>
  <use xlink:href="#t" transform="matrix(7 0 0 -7 329.249 649.914)"/>
  <use xlink:href="#k" transform="matrix(7 0 0 -7 308.878 659.917)"/>
  <use xlink:href="#h" transform="matrix(7 0 0 -7 312.371 659.917)"/>
  <use xlink:href="#g" transform="matrix(7 0 0 -7 315.024 659.987)"/>
  <use xlink:href="#a" transform="matrix(7 0 0 -7 318.055 659.987)"/>
  <use xlink:href="#f" transform="matrix(7 0 0 -7 321.17 659.917)"/>
  <use xlink:href="#i" transform="matrix(7 0 0 -7 324.516 659.917)"/>
  <use xlink:href="#e" transform="matrix(7 0 0 -7 326.231 659.917)"/>
  <use xlink:href="#c" transform="matrix(7 0 0 -7 329.171 659.917)"/>
  <use xlink:href="#i" transform="matrix(7 0 0 -7 332.335 659.917)"/>
  <use xlink:href="#r" transform="matrix(7 0 0 -7 333.938 659.987)"/>
  <use xlink:href="#p" transform="matrix(7 0 0 -7 337.431 659.917)"/>
  <path fill="none" stroke="#d1d3d4" stroke-width=".5" d="M306.576 651.893h274.343"/>
  <path fill="#fff" d="M401.36 626.947h5.487v-5.487h-5.487zm0 9.32h5.487v-5.487h-5.487z"/>
  <use xlink:href="#af" fill="#fff" transform="matrix(6 0 0 -6 408.374 626.402)"/>
  <use xlink:href="#ag" fill="#fff" transform="matrix(6 0 0 -6 411.428 626.402)"/>
  <use xlink:href="#ah" fill="#fff" transform="matrix(6 0 0 -6 414.866 626.402)"/>
  <use xlink:href="#ah" fill="#fff" transform="matrix(6 0 0 -6 417.95 626.402)"/>
  <use xlink:href="#ai" fill="#fff" transform="matrix(6 0 0 -6 420.62 626.402)"/>
  <use xlink:href="#Y" fill="#fff" transform="matrix(6 0 0 -6 421.748 626.402)"/>
  <use xlink:href="#Z" fill="#fff" transform="matrix(6 0 0 -6 425.48 626.462)"/>
  <use xlink:href="#aa" fill="#fff" transform="matrix(6 0 0 -6 428.408 626.402)"/>
  <use xlink:href="#ab" fill="#fff" transform="matrix(6 0 0 -6 431.732 626.402)"/>
  <use xlink:href="#ac" fill="#fff" transform="matrix(6 0 0 -6 433.292 626.462)"/>
  <use xlink:href="#ad" fill="#fff" transform="matrix(6 0 0 -6 436.964 626.402)"/>
  <use xlink:href="#ag" fill="#fff" transform="matrix(6 0 0 -6 408.614 635.684)"/>
  <use xlink:href="#ah" fill="#fff" transform="matrix(6 0 0 -6 411.932 635.684)"/>
  <use xlink:href="#Y" fill="#fff" transform="matrix(6 0 0 -6 414.542 635.684)"/>
  <use xlink:href="#Z" fill="#fff" transform="matrix(6 0 0 -6 418.154 635.744)"/>
  <use xlink:href="#aa" fill="#fff" transform="matrix(6 0 0 -6 420.962 635.684)"/>
  <use xlink:href="#ab" fill="#fff" transform="matrix(6 0 0 -6 424.166 635.684)"/>
  <use xlink:href="#ac" fill="#fff" transform="matrix(6 0 0 -6 425.606 635.744)"/>
  <use xlink:href="#ad" fill="#fff" transform="matrix(6 0 0 -6 429.158 635.684)"/>
  <path fill="#fff" d="M21.741 712.599h94.939V691.16H21.741z"/>
  <path fill="none" stroke="#000" d="M21.741 712.599h94.939V691.16H21.741z"/>
  <path fill="#fff" d="M264.325 712.599h34.405V691.16h-34.405z"/>
  <path fill="none" stroke="#000" d="M264.325 712.599h34.405V691.16h-34.405z"/>
  <path d="M116.6 712.599h40.38V691.16H116.6z"/>
  <path fill="none" stroke="#000" d="M116.6 712.599h40.38V691.16H116.6z"/>
  <path fill="#fff" d="M157.98 712.599h103.708V691.16H157.98z"/>
  <path fill="none" stroke="#000" d="M157.98 712.599h103.708V691.16H157.98z"/>
  <path fill="#fff" d="M21.741 760.279H298.73v-45.898H21.741z"/>
  <path fill="none" stroke="#000" d="M21.741 760.279H298.73v-45.898H21.741z"/>
  <use xlink:href="#c" transform="matrix(7 0 0 -7 159.585 698.516)"/>
  <use xlink:href="#f" transform="matrix(7 0 0 -7 162.686 698.516)"/>
  <use xlink:href="#b" transform="matrix(7 0 0 -7 165.654 698.516)"/>
  <use xlink:href="#i" transform="matrix(7 0 0 -7 169.469 698.516)"/>
  <use xlink:href="#c" transform="matrix(7 0 0 -7 170.897 698.516)"/>
  <use xlink:href="#g" transform="matrix(7 0 0 -7 173.739 698.586)"/>
  <use xlink:href="#e" transform="matrix(7 0 0 -7 268.183 698.516)"/>
  <use xlink:href="#b" transform="matrix(7 0 0 -7 270.815 698.516)"/>
  <use xlink:href="#s" transform="matrix(7 0 0 -7 274.35 698.586)"/>
  <use xlink:href="#h" transform="matrix(7 0 0 -7 277.807 698.516)"/>
  <use xlink:href="#p" transform="matrix(7 0 0 -7 24.268 698.516)"/>
  <use xlink:href="#b" transform="matrix(7 0 0 -7 27.474 698.516)"/>
  <use xlink:href="#w" transform="matrix(7 0 0 -7 31.226 698.516)"/>
  <use xlink:href="#h" transform="matrix(7 0 0 -7 35.74 698.516)"/>
  <use xlink:href="#c" transform="matrix(7 0 0 -7 24.89 722.743)"/>
  <use xlink:href="#f" transform="matrix(7 0 0 -7 27.992 722.743)"/>
  <use xlink:href="#i" transform="matrix(7 0 0 -7 31.338 722.743)"/>
  <use xlink:href="#s" transform="matrix(7 0 0 -7 32.94 722.813)"/>
  <use xlink:href="#s" transform="matrix(7 0 0 -7 36.287 722.813)"/>
  <use xlink:href="#h" transform="matrix(7 0 0 -7 39.745 722.743)"/>
  <use xlink:href="#f" transform="matrix(7 0 0 -7 42.657 722.743)"/>
  <use xlink:href="#t" transform="matrix(7 0 0 -7 45.549 722.743)"/>
  <use xlink:href="#k" transform="matrix(7 0 0 -7 25.178 732.746)"/>
  <use xlink:href="#h" transform="matrix(7 0 0 -7 28.67 732.746)"/>
  <use xlink:href="#g" transform="matrix(7 0 0 -7 31.324 732.816)"/>
  <use xlink:href="#a" transform="matrix(7 0 0 -7 34.355 732.816)"/>
  <use xlink:href="#f" transform="matrix(7 0 0 -7 37.47 732.746)"/>
  <use xlink:href="#i" transform="matrix(7 0 0 -7 40.816 732.746)"/>
  <use xlink:href="#e" transform="matrix(7 0 0 -7 42.53 732.746)"/>
  <use xlink:href="#c" transform="matrix(7 0 0 -7 45.47 732.746)"/>
  <use xlink:href="#i" transform="matrix(7 0 0 -7 48.635 732.746)"/>
  <use xlink:href="#r" transform="matrix(7 0 0 -7 50.238 732.816)"/>
  <use xlink:href="#p" transform="matrix(7 0 0 -7 53.73 732.746)"/>
  <path fill="none" stroke="#d1d3d4" stroke-width=".5" d="M22.876 724.721h274.343"/>
  <path fill="#fff" d="M117.66 699.776h5.487v-5.487h-5.487zm0 9.32h5.487v-5.487h-5.487z"/>
  <use xlink:href="#af" fill="#fff" transform="matrix(6 0 0 -6 124.674 699.23)"/>
  <use xlink:href="#ag" fill="#fff" transform="matrix(6 0 0 -6 127.728 699.23)"/>
  <use xlink:href="#ah" fill="#fff" transform="matrix(6 0 0 -6 131.166 699.23)"/>
  <use xlink:href="#ah" fill="#fff" transform="matrix(6 0 0 -6 134.25 699.23)"/>
  <use xlink:href="#ai" fill="#fff" transform="matrix(6 0 0 -6 136.92 699.23)"/>
  <use xlink:href="#Y" fill="#fff" transform="matrix(6 0 0 -6 138.048 699.23)"/>
  <use xlink:href="#Z" fill="#fff" transform="matrix(6 0 0 -6 141.78 699.29)"/>
  <use xlink:href="#aa" fill="#fff" transform="matrix(6 0 0 -6 144.708 699.23)"/>
  <use xlink:href="#ab" fill="#fff" transform="matrix(6 0 0 -6 148.032 699.23)"/>
  <use xlink:href="#ac" fill="#fff" transform="matrix(6 0 0 -6 149.592 699.29)"/>
  <use xlink:href="#ad" fill="#fff" transform="matrix(6 0 0 -6 153.264 699.23)"/>
  <use xlink:href="#ag" fill="#fff" transform="matrix(6 0 0 -6 124.914 708.513)"/>
  <use xlink:href="#ah" fill="#fff" transform="matrix(6 0 0 -6 128.232 708.513)"/>
  <use xlink:href="#Y" fill="#fff" transform="matrix(6 0 0 -6 130.842 708.513)"/>
  <use xlink:href="#Z" fill="#fff" transform="matrix(6 0 0 -6 134.454 708.573)"/>
  <use xlink:href="#aa" fill="#fff" transform="matrix(6 0 0 -6 137.262 708.513)"/>
  <use xlink:href="#ab" fill="#fff" transform="matrix(6 0 0 -6 140.466 708.513)"/>
  <use xlink:href="#ac" fill="#fff" transform="matrix(6 0 0 -6 141.906 708.573)"/>
  <use xlink:href="#ad" fill="#fff" transform="matrix(6 0 0 -6 145.458 708.513)"/>
  <path fill="#fff" d="M305.441 712.599h94.939V691.16h-94.939z"/>
  <path fill="none" stroke="#000" d="M305.441 712.599h94.939V691.16h-94.939z"/>
  <path fill="#fff" d="M548.025 712.599h34.405V691.16h-34.405z"/>
  <path fill="none" stroke="#000" d="M548.025 712.599h34.405V691.16h-34.405z"/>
  <path d="M400.3 712.599h40.38V691.16H400.3z"/>
  <path fill="none" stroke="#000" d="M400.3 712.599h40.38V691.16H400.3z"/>
  <path fill="#fff" d="M441.68 712.599h103.708V691.16H441.68z"/>
  <path fill="none" stroke="#000" d="M441.68 712.599h103.708V691.16H441.68z"/>
  <path fill="#fff" d="M305.441 760.279h276.99v-45.898H305.44z"/>
  <path fill="none" stroke="#000" d="M305.441 760.279h276.99v-45.898H305.44z"/>
  <use xlink:href="#c" transform="matrix(7 0 0 -7 443.285 698.516)"/>
  <use xlink:href="#f" transform="matrix(7 0 0 -7 446.386 698.516)"/>
  <use xlink:href="#b" transform="matrix(7 0 0 -7 449.354 698.516)"/>
  <use xlink:href="#i" transform="matrix(7 0 0 -7 453.169 698.516)"/>
  <use xlink:href="#c" transform="matrix(7 0 0 -7 454.597 698.516)"/>
  <use xlink:href="#g" transform="matrix(7 0 0 -7 457.439 698.586)"/>
  <use xlink:href="#e" transform="matrix(7 0 0 -7 551.883 698.516)"/>
  <use xlink:href="#b" transform="matrix(7 0 0 -7 554.515 698.516)"/>
  <use xlink:href="#s" transform="matrix(7 0 0 -7 558.05 698.586)"/>
  <use xlink:href="#h" transform="matrix(7 0 0 -7 561.507 698.516)"/>
  <use xlink:href="#p" transform="matrix(7 0 0 -7 307.968 698.516)"/>
  <use xlink:href="#b" transform="matrix(7 0 0 -7 311.174 698.516)"/>
  <use xlink:href="#w" transform="matrix(7 0 0 -7 314.926 698.516)"/>
  <use xlink:href="#h" transform="matrix(7 0 0 -7 319.441 698.516)"/>
  <use xlink:href="#c" transform="matrix(7 0 0 -7 308.591 722.743)"/>
  <use xlink:href="#f" transform="matrix(7 0 0 -7 311.692 722.743)"/>
  <use xlink:href="#i" transform="matrix(7 0 0 -7 315.038 722.743)"/>
  <use xlink:href="#s" transform="matrix(7 0 0 -7 316.641 722.813)"/>
  <use xlink:href="#s" transform="matrix(7 0 0 -7 319.987 722.813)"/>
  <use xlink:href="#h" transform="matrix(7 0 0 -7 323.445 722.743)"/>
  <use xlink:href="#f" transform="matrix(7 0 0 -7 326.357 722.743)"/>
  <use xlink:href="#t" transform="matrix(7 0 0 -7 329.249 722.743)"/>
  <use xlink:href="#k" transform="matrix(7 0 0 -7 308.878 732.746)"/>
  <use xlink:href="#h" transform="matrix(7 0 0 -7 312.371 732.746)"/>
  <use xlink:href="#g" transform="matrix(7 0 0 -7 315.024 732.816)"/>
  <use xlink:href="#a" transform="matrix(7 0 0 -7 318.055 732.816)"/>
  <use xlink:href="#f" transform="matrix(7 0 0 -7 321.17 732.746)"/>
  <use xlink:href="#i" transform="matrix(7 0 0 -7 324.516 732.746)"/>
  <use xlink:href="#e" transform="matrix(7 0 0 -7 326.231 732.746)"/>
  <use xlink:href="#c" transform="matrix(7 0 0 -7 329.171 732.746)"/>
  <use xlink:href="#i" transform="matrix(7 0 0 -7 332.335 732.746)"/>
  <use xlink:href="#r" transform="matrix(7 0 0 -7 333.938 732.816)"/>
  <use xlink:href="#p" transform="matrix(7 0 0 -7 337.431 732.746)"/>
  <path fill="none" stroke="#d1d3d4" stroke-width=".5" d="M306.576 724.721h274.343"/>
  <path fill="#fff" d="M401.36 699.776h5.487v-5.487h-5.487zm0 9.32h5.487v-5.487h-5.487z"/>
  <use xlink:href="#af" fill="#fff" transform="matrix(6 0 0 -6 408.374 699.23)"/>
  <use xlink:href="#ag" fill="#fff" transform="matrix(6 0 0 -6 411.428 699.23)"/>
  <use xlink:href="#ah" fill="#fff" transform="matrix(6 0 0 -6 414.866 699.23)"/>
  <use xlink:href="#ah" fill="#fff" transform="matrix(6 0 0 -6 417.95 699.23)"/>
  <use xlink:href="#ai" fill="#fff" transform="matrix(6 0 0 -6 420.62 699.23)"/>
  <use xlink:href="#Y" fill="#fff" transform="matrix(6 0 0 -6 421.748 699.23)"/>
  <use xlink:href="#Z" fill="#fff" transform="matrix(6 0 0 -6 425.48 699.29)"/>
  <use xlink:href="#aa" fill="#fff" transform="matrix(6 0 0 -6 428.408 699.23)"/>
  <use xlink:href="#ab" fill="#fff" transform="matrix(6 0 0 -6 431.732 699.23)"/>
  <use xlink:href="#ac" fill="#fff" transform="matrix(6 0 0 -6 433.292 699.29)"/>
  <use xlink:href="#ad" fill="#fff" transform="matrix(6 0 0 -6 436.964 699.23)"/>
  <use xlink:href="#ag" fill="#fff" transform="matrix(6 0 0 -6 408.614 708.513)"/>
  <use xlink:href="#ah" fill="#fff" transform="matrix(6 0 0 -6 411.932 708.513)"/>
  <use xlink:href="#Y" fill="#fff" transform="matrix(6 0 0 -6 414.542 708.513)"/>
  <use xlink:href="#Z" fill="#fff" transform="matrix(6 0 0 -6 418.154 708.573)"/>
  <use xlink:href="#aa" fill="#fff" transform="matrix(6 0 0 -6 420.962 708.513)"/>
  <use xlink:href="#ab" fill="#fff" transform="matrix(6 0 0 -6 424.166 708.513)"/>
  <use xlink:href="#ac" fill="#fff" transform="matrix(6 0 0 -6 425.606 708.573)"/>
  <use xlink:href="#ad" fill="#fff" transform="matrix(6 0 0 -6 429.158 708.513)"/>
  <clipPath id="aj">
    <path d="M0 783h603V0H0z"/>
  </clipPath>
  <g clip-path="url(#aj)">
    <symbol id="ak">
      <path d="M.301.631C.185.631.116.557.116.439V.307c0-.112.071-.19.185-.19.09 0 .148.038.169.129L.42.261C.401.193.368.169.305.169c-.078 0-.12.057-.12.138v.132c0 .088.041.139.121.139.06 0 .097-.032.113-.085l.05.017a.167.167 0 0 1-.168.121M.597.436c0 .175-.109.312-.298.312S0 .611 0 .436V.312C0 .138.11 0 .299 0s.298.138.298.312v.124M.547.313C.547.16.456.049.299.049S.051.16.051.313v.122c0 .153.091.264.248.264S.547.588.547.435V.313z"/>
    </symbol>
    <symbol id="al">
      <path d="M.215.735C.096.735.023.652 0 .558l.061-.02c.019.08.074.131.151.131C.304.669.344.62.344.548.344.349.007.277.002.043L.004 0h.428v.066h-.35c.026.192.339.235.339.485 0 .102-.064.184-.206.184z"/>
    </symbol>
    <symbol id="am">
      <path d="M.449.503c0 .149-.08.242-.224.242C.08.745 0 .652 0 .502V.238C0 .091.08 0 .225 0c.144 0 .224.091.224.238v.265m-.372 0c0 .114.05.173.148.173.097 0 .147-.059.147-.173V.238C.372.124.322.067.225.067.127.067.077.124.077.238v.265z"/>
    </symbol>
    <symbol id="an">
      <path d="M.172.728C.166.618.145.603.07.603H0V.548h.151V0H.23v.728H.172z"/>
    </symbol>
    <symbol id="ao">
      <path d="M.063.164.011.135C.044.048.113 0 .218 0c.128 0 .219.086.219.22v.308C.437.66.356.745.225.745.077.745 0 .66 0 .519 0 .372.076.303.206.303c.066 0 .12.021.153.056h.002V.217C.361.118.303.066.215.066c-.074 0-.12.031-.152.098m.154.201c-.088 0-.14.041-.14.156 0 .103.049.158.146.158.09 0 .138-.056.138-.148V.452C.357.397.278.365.217.365z"/>
    </symbol>
    <symbol id="ap">
      <path d="M0 0z"/>
    </symbol>
    <symbol id="aq">
      <path d="M.236.725H0V0h.082v.292H.24c.129 0 .199.081.199.216 0 .138-.072.217-.203.217M.082.656h.153C.32.656.357.609.357.508.357.406.32.358.235.358H.082v.298z"/>
    </symbol>
    <symbol id="ar">
      <path d="M.061.385C.09.434.128.463.177.463.239.463.27.425.27.35V.295H.225C.055.295 0 .226 0 .133 0 .052.052 0 .141 0c.052 0 .1.018.137.053C.29.024.318.002.361.002c.014 0 .027.003.038.006v.044H.385C.357.052.343.069.343.097V.35c0 .098-.046.172-.157.172C.107.522.054.478.016.414L.061.385M.155.054C.102.054.071.079.071.137c0 .064.035.105.154.105H.27V.107A.14.14 0 0 0 .155.054z"/>
    </symbol>
    <symbol id="as">
      <path d="M0 .504V0h.073v.504H0m.001.221V.623h.071v.102H.001z"/>
    </symbol>
    <symbol id="at">
      <path d="M.346.06H.087l.262.398v.046H.012v-.06H.26L0 .047V0h.346v.06z"/>
    </symbol>
    <symbol id="au">
      <path d="M.382.343c0 .104-.067.179-.191.179S0 .446 0 .343V.177C0 .073.067 0 .191 0c.123 0 .191.074.191.177v.166M.073.341c0 .074.036.123.118.123.081 0 .118-.049.118-.123V.18C.309.106.272.058.191.058.11.058.073.106.073.18v.161z"/>
    </symbol>
    <symbol id="av">
      <path d="M0 .725V0h.082v.725H0z"/>
    </symbol>
    <symbol id="aw">
      <path d="M.073.388a.152.152 0 0 0 .125.063c.074 0 .11-.045.11-.123V0h.073v.329C.381.44.325.513.217.513A.187.187 0 0 1 .069.448H.067L.065.504H0V0h.073v.388z"/>
    </symbol>
    <symbol id="ax">
      <path d="M.352.412a.178.178 0 0 1-.169.11C.064.522 0 .445 0 .343V.179C0 .078.064 0 .183 0c.089 0 .145.047.172.118L.302.139C.279.084.243.059.188.059.115.059.073.104.073.182V.34c0 .08.041.122.115.122A.115.115 0 0 0 .301.388l.051.024z"/>
    </symbol>
    <symbol id="ay">
      <path d="M0 0h.094v.1H0V0z"/>
    </symbol>
    <symbol id="az">
      <path d="M.002.12h.043C.045.068.036.047 0 .036L.005 0c.07.009.09.064.09.146v.07H.002V.12z"/>
    </symbol>
    <symbol id="aA">
      <path d="M.273.511h-.13v.146H.09L.071.513 0 .509V.463L.068.45V.141C.068.05.106 0 .189 0c.034 0 .06.009.082.022l-.01.046a.109.109 0 0 0-.048-.01c-.042 0-.07.021-.07.08v.316h.13v.057z"/>
    </symbol>
    <symbol id="aB">
      <path d="M.073.388a.153.153 0 0 0 .124.063C.272.451.308.406.308.328V0h.073v.329C.381.44.325.513.217.513A.18.18 0 0 1 .075.452H.073v.297H0V0h.073v.388z"/>
    </symbol>
    <symbol id="aC">
      <path d="M.265.729C.121.724.068.645.068.545V.504H0V.45h.068V0h.073v.45h.207V0h.073v.504H.138v.04c0 .076.034.129.131.133L.265.729M.349.725V.623h.069v.102H.349z"/>
    </symbol>
    <symbol id="aD">
      <path d="M.167.523C.057.523 0 .449 0 .339V.184C0 .074.057 0 .164 0c.06 0 .111.022.146.062h.002L.316.009h.065v.749H.308V.466H.306a.185.185 0 0 1-.139.057m.141-.4A.151.151 0 0 0 .184.061C.109.061.073.107.073.183v.155c0 .078.037.124.112.124A.148.148 0 0 0 .308.401V.123z"/>
    </symbol>
    <symbol id="aE">
      <path d="M.364.261v.08c0 .102-.066.181-.181.181C.066.522 0 .446 0 .343V.18C0 .075.066 0 .186 0c.093 0 .15.043.179.126L.312.147C.286.084.25.058.192.058.116.058.073.104.073.182v.079h.291M.073.347c0 .07.036.118.112.118C.257.465.299.42.299.348V.309H.073v.038z"/>
    </symbol>
    <symbol id="aF">
      <path d="M.263.498a.14.14 0 0 1-.061.014C.144.512.097.479.069.408H.067L.064.504H0V0h.073v.289c.008.09.051.155.128.155A.107.107 0 0 0 .252.432l.011.066z"/>
    </symbol>
    <symbol id="aG">
      <path d="M0 .749V0h.074v.749H0z"/>
    </symbol>
    <symbol id="aH">
      <path d="M.199.359c.123 0 .178.052.178.165 0 .04-.007.072-.022.098a.187.187 0 0 1 .063.099L.38.737A.156.156 0 0 0 .314.664.22.22 0 0 1 .199.69C.078.69.024.637.024.524c0-.058.014-.101.044-.128C.022.375 0 .342 0 .308 0 .267.023.237.063.223a.116.116 0 0 1-.05-.099C.013.045.073 0 .199 0c.136 0 .216.057.216.155 0 .074-.042.121-.162.121H.13C.08.276.062.294.062.321c0 .021.012.04.045.052A.27.27 0 0 1 .199.359M.095.523c0 .083.026.111.105.111.077 0 .106-.028.106-.111S.282.413.2.413C.119.413.095.44.095.523M.249.214c.079 0 .1-.021.1-.067C.349.096.324.053.2.053.122.053.075.077.075.13c0 .041.015.067.048.084h.126z"/>
    </symbol>
    <symbol id="aI">
      <path d="M.332.418a.164.164 0 0 1-.161.104C.063.522.008.459.008.385c0-.168.258-.122.258-.244C.266.088.234.054.17.054a.127.127 0 0 0-.122.079L0 .109C.033.033.094 0 .173 0c.095 0 .162.06.162.147 0 .172-.257.127-.257.244 0 .043.03.076.095.076a.11.11 0 0 0 .11-.071l.049.022z"/>
    </symbol>
    <symbol id="aJ">
      <path d="M.347.329C.347.414.391.45.45.45.518.45.548.404.548.329V0h.073v.329c0 .123-.058.184-.155.184a.152.152 0 0 1-.14-.084H.324C.302.487.256.513.198.513A.156.156 0 0 1 .067.442H.065v.062H0V0h.073v.374C.093.418.134.45.181.45.236.45.274.418.274.329V0h.073v.329z"/>
    </symbol>
    <symbol id="aK">
      <path d="M0 .749V0h.073v.158L.15.24.315 0h.087L.199.288.38.504H.296L.073.235v.514H0z"/>
    </symbol>
    <symbol id="aL">
      <path d="M.276.504H.138v.04c0 .076.034.129.131.133L.265.729C.121.724.068.645.068.545V.504H0V.45h.068V0h.073v.45h.135v.054z"/>
    </symbol>
    <symbol id="aM">
      <path d="M.214.161c.11 0 .167.073.167.183v.154c0 .109-.055.184-.164.184A.185.185 0 0 1 .07.618H.068L.065.673H0V0h.073v.218h.002A.178.178 0 0 1 .214.161M.073.558A.154.154 0 0 0 .198.62c.075 0 .11-.046.11-.123V.344C.308.266.271.22.196.22a.144.144 0 0 0-.123.063v.275z"/>
    </symbol>
    <symbol id="aN">
      <path d="M.458.673H.381L.243.259H.241L.082.673H0L.206.177.197.15C.176.088.144.062.083.053L.089 0c.089.005.139.05.172.139l.197.534z"/>
    </symbol>
    <symbol id="aO">
      <path d="M.309.123A.152.152 0 0 0 .184.061c-.074 0-.11.046-.11.122v.33H0V.184C0 .074.057 0 .165 0c.06 0 .111.022.146.063h.002L.317.009h.065v.504H.309v-.39z"/>
    </symbol>
    <use xlink:href="#ak" transform="matrix(7 0 0 -7 153.829 772.81)"/>
    <use xlink:href="#al" transform="matrix(7 0 0 -7 158.84 772.719)"/>
    <use xlink:href="#am" transform="matrix(7 0 0 -7 162.614 772.789)"/>
    <use xlink:href="#an" transform="matrix(7 0 0 -7 166.436 772.719)"/>
    <use xlink:href="#ao" transform="matrix(7 0 0 -7 169.068 772.789)"/>
    <use xlink:href="#ap" transform="matrix(7 0 0 -7 172.547 772.719)"/>
    <use xlink:href="#aq" transform="matrix(7 0 0 -7 174.815 772.719)"/>
    <use xlink:href="#ar" transform="matrix(7 0 0 -7 178.448 772.775)"/>
    <use xlink:href="#as" transform="matrix(7 0 0 -7 181.899 772.719)"/>
    <use xlink:href="#at" transform="matrix(7 0 0 -7 183.25 772.719)"/>
    <use xlink:href="#au" transform="matrix(7 0 0 -7 186.238 772.782)"/>
    <use xlink:href="#ap" transform="matrix(7 0 0 -7 189.255 772.719)"/>
    <use xlink:href="#av" transform="matrix(7 0 0 -7 191.649 772.719)"/>
    <use xlink:href="#aw" transform="matrix(7 0 0 -7 193.413 772.719)"/>
    <use xlink:href="#ax" transform="matrix(7 0 0 -7 196.836 772.782)"/>
    <use xlink:href="#ay" transform="matrix(7 0 0 -7 199.881 772.719)"/>
    <use xlink:href="#az" transform="matrix(7 0 0 -7 201.337 773.559)"/>
    <use xlink:href="#ap" transform="matrix(7 0 0 -7 202.401 772.719)"/>
    <use xlink:href="#aq" transform="matrix(7 0 0 -7 204.669 772.719)"/>
    <use xlink:href="#ar" transform="matrix(7 0 0 -7 208.302 772.775)"/>
    <use xlink:href="#as" transform="matrix(7 0 0 -7 211.753 772.719)"/>
    <use xlink:href="#at" transform="matrix(7 0 0 -7 213.104 772.719)"/>
    <use xlink:href="#au" transform="matrix(7 0 0 -7 216.093 772.782)"/>
    <use xlink:href="#az" transform="matrix(7 0 0 -7 219.509 773.559)"/>
    <use xlink:href="#ap" transform="matrix(7 0 0 -7 220.573 772.719)"/>
    <use xlink:href="#aq" transform="matrix(7 0 0 -7 222.84 772.719)"/>
    <use xlink:href="#ar" transform="matrix(7 0 0 -7 226.474 772.775)"/>
    <use xlink:href="#aA" transform="matrix(7 0 0 -7 229.512 772.768)"/>
    <use xlink:href="#aB" transform="matrix(7 0 0 -7 232.186 772.719)"/>
    <use xlink:href="#aC" transform="matrix(7 0 0 -7 235.42 772.719)"/>
    <use xlink:href="#aw" transform="matrix(7 0 0 -7 239.403 772.719)"/>
    <use xlink:href="#aD" transform="matrix(7 0 0 -7 242.826 772.782)"/>
    <use xlink:href="#aE" transform="matrix(7 0 0 -7 246.361 772.782)"/>
    <use xlink:href="#aF" transform="matrix(7 0 0 -7 249.686 772.719)"/>
    <use xlink:href="#az" transform="matrix(7 0 0 -7 251.715 773.559)"/>
    <use xlink:href="#ap" transform="matrix(7 0 0 -7 252.78 772.719)"/>
    <use xlink:href="#ar" transform="matrix(7 0 0 -7 254.767 772.775)"/>
    <use xlink:href="#aw" transform="matrix(7 0 0 -7 258.155 772.719)"/>
    <use xlink:href="#aD" transform="matrix(7 0 0 -7 261.578 772.782)"/>
    <use xlink:href="#ap" transform="matrix(7 0 0 -7 264.77 772.719)"/>
    <use xlink:href="#aA" transform="matrix(7 0 0 -7 266.611 772.768)"/>
    <use xlink:href="#aB" transform="matrix(7 0 0 -7 269.285 772.719)"/>
    <use xlink:href="#aE" transform="matrix(7 0 0 -7 272.708 772.782)"/>
    <use xlink:href="#ap" transform="matrix(7 0 0 -7 275.55 772.719)"/>
    <use xlink:href="#aq" transform="matrix(7 0 0 -7 277.818 772.719)"/>
    <use xlink:href="#ar" transform="matrix(7 0 0 -7 281.451 772.775)"/>
    <use xlink:href="#aA" transform="matrix(7 0 0 -7 284.489 772.768)"/>
    <use xlink:href="#aB" transform="matrix(7 0 0 -7 287.163 772.719)"/>
    <use xlink:href="#aC" transform="matrix(7 0 0 -7 290.397 772.719)"/>
    <use xlink:href="#aw" transform="matrix(7 0 0 -7 294.38 772.719)"/>
    <use xlink:href="#aD" transform="matrix(7 0 0 -7 297.803 772.782)"/>
    <use xlink:href="#aE" transform="matrix(7 0 0 -7 301.338 772.782)"/>
    <use xlink:href="#aF" transform="matrix(7 0 0 -7 304.663 772.719)"/>
    <use xlink:href="#ap" transform="matrix(7 0 0 -7 306.616 772.719)"/>
    <use xlink:href="#aG" transform="matrix(7 0 0 -7 308.87 772.719)"/>
    <use xlink:href="#au" transform="matrix(7 0 0 -7 310.298 772.782)"/>
    <use xlink:href="#aH" transform="matrix(7 0 0 -7 313.658 773.958)"/>
    <use xlink:href="#au" transform="matrix(7 0 0 -7 317.095 772.782)"/>
    <use xlink:href="#ap" transform="matrix(7 0 0 -7 320.112 772.719)"/>
    <use xlink:href="#ar" transform="matrix(7 0 0 -7 322.1 772.775)"/>
    <use xlink:href="#aF" transform="matrix(7 0 0 -7 325.488 772.719)"/>
    <use xlink:href="#aE" transform="matrix(7 0 0 -7 327.706 772.782)"/>
    <use xlink:href="#ap" transform="matrix(7 0 0 -7 330.548 772.719)"/>
    <use xlink:href="#aF" transform="matrix(7 0 0 -7 332.718 772.719)"/>
    <use xlink:href="#aE" transform="matrix(7 0 0 -7 334.937 772.782)"/>
    <use xlink:href="#aH" transform="matrix(7 0 0 -7 338.122 773.958)"/>
    <use xlink:href="#as" transform="matrix(7 0 0 -7 341.762 772.719)"/>
    <use xlink:href="#aI" transform="matrix(7 0 0 -7 343.134 772.782)"/>
    <use xlink:href="#aA" transform="matrix(7 0 0 -7 345.892 772.768)"/>
    <use xlink:href="#aE" transform="matrix(7 0 0 -7 348.39 772.782)"/>
    <use xlink:href="#aF" transform="matrix(7 0 0 -7 351.716 772.719)"/>
    <use xlink:href="#aE" transform="matrix(7 0 0 -7 353.934 772.782)"/>
    <use xlink:href="#aD" transform="matrix(7 0 0 -7 357.12 772.782)"/>
    <use xlink:href="#ap" transform="matrix(7 0 0 -7 360.311 772.719)"/>
    <use xlink:href="#aA" transform="matrix(7 0 0 -7 362.152 772.768)"/>
    <use xlink:href="#aF" transform="matrix(7 0 0 -7 364.791 772.719)"/>
    <use xlink:href="#ar" transform="matrix(7 0 0 -7 367.045 772.775)"/>
    <use xlink:href="#aD" transform="matrix(7 0 0 -7 370.293 772.782)"/>
    <use xlink:href="#aE" transform="matrix(7 0 0 -7 373.828 772.782)"/>
    <use xlink:href="#aJ" transform="matrix(7 0 0 -7 377.153 772.719)"/>
    <use xlink:href="#ar" transform="matrix(7 0 0 -7 382.207 772.775)"/>
    <use xlink:href="#aF" transform="matrix(7 0 0 -7 385.595 772.719)"/>
    <use xlink:href="#aK" transform="matrix(7 0 0 -7 388.066 772.719)"/>
    <use xlink:href="#aI" transform="matrix(7 0 0 -7 391.3 772.782)"/>
    <use xlink:href="#ap" transform="matrix(7 0 0 -7 393.904 772.719)"/>
    <use xlink:href="#au" transform="matrix(7 0 0 -7 395.934 772.782)"/>
    <use xlink:href="#aL" transform="matrix(7 0 0 -7 399.105 772.719)"/>
    <use xlink:href="#ap" transform="matrix(7 0 0 -7 401.17 772.719)"/>
    <use xlink:href="#aq" transform="matrix(7 0 0 -7 403.438 772.719)"/>
    <use xlink:href="#ar" transform="matrix(7 0 0 -7 407.071 772.775)"/>
    <use xlink:href="#as" transform="matrix(7 0 0 -7 410.522 772.719)"/>
    <use xlink:href="#at" transform="matrix(7 0 0 -7 411.873 772.719)"/>
    <use xlink:href="#au" transform="matrix(7 0 0 -7 414.862 772.782)"/>
    <use xlink:href="#ap" transform="matrix(7 0 0 -7 417.88 772.719)"/>
    <use xlink:href="#av" transform="matrix(7 0 0 -7 420.273 772.719)"/>
    <use xlink:href="#aw" transform="matrix(7 0 0 -7 422.037 772.719)"/>
    <use xlink:href="#ax" transform="matrix(7 0 0 -7 425.46 772.782)"/>
    <use xlink:href="#ay" transform="matrix(7 0 0 -7 428.505 772.719)"/>
    <use xlink:href="#ap" transform="matrix(7 0 0 -7 429.562 772.719)"/>
    <use xlink:href="#aq" transform="matrix(7 0 0 -7 431.83 772.719)"/>
    <use xlink:href="#aE" transform="matrix(7 0 0 -7 435.351 772.782)"/>
    <use xlink:href="#aF" transform="matrix(7 0 0 -7 438.676 772.719)"/>
    <use xlink:href="#aJ" transform="matrix(7 0 0 -7 441.112 772.719)"/>
    <use xlink:href="#as" transform="matrix(7 0 0 -7 446.411 772.719)"/>
    <use xlink:href="#aI" transform="matrix(7 0 0 -7 447.783 772.782)"/>
    <use xlink:href="#aI" transform="matrix(7 0 0 -7 450.695 772.782)"/>
    <use xlink:href="#as" transform="matrix(7 0 0 -7 453.845 772.719)"/>
    <use xlink:href="#au" transform="matrix(7 0 0 -7 455.252 772.782)"/>
    <use xlink:href="#aw" transform="matrix(7 0 0 -7 458.752 772.719)"/>
    <use xlink:href="#ap" transform="matrix(7 0 0 -7 461.832 772.719)"/>
    <use xlink:href="#aH" transform="matrix(7 0 0 -7 463.862 773.958)"/>
    <use xlink:href="#aF" transform="matrix(7 0 0 -7 467.44 772.719)"/>
    <use xlink:href="#ar" transform="matrix(7 0 0 -7 469.693 772.775)"/>
    <use xlink:href="#aw" transform="matrix(7 0 0 -7 473.081 772.719)"/>
    <use xlink:href="#aA" transform="matrix(7 0 0 -7 476.315 772.768)"/>
    <use xlink:href="#aE" transform="matrix(7 0 0 -7 478.814 772.782)"/>
    <use xlink:href="#aD" transform="matrix(7 0 0 -7 482 772.782)"/>
    <use xlink:href="#ap" transform="matrix(7 0 0 -7 485.191 772.719)"/>
    <use xlink:href="#aA" transform="matrix(7 0 0 -7 487.032 772.768)"/>
    <use xlink:href="#au" transform="matrix(7 0 0 -7 489.531 772.782)"/>
    <use xlink:href="#ap" transform="matrix(7 0 0 -7 492.548 772.719)"/>
    <use xlink:href="#aM" transform="matrix(7 0 0 -7 494.718 773.902)"/>
    <use xlink:href="#aB" transform="matrix(7 0 0 -7 498.246 772.719)"/>
    <use xlink:href="#au" transform="matrix(7 0 0 -7 501.67 772.782)"/>
    <use xlink:href="#aA" transform="matrix(7 0 0 -7 504.84 772.768)"/>
    <use xlink:href="#au" transform="matrix(7 0 0 -7 507.34 772.782)"/>
    <use xlink:href="#ax" transform="matrix(7 0 0 -7 510.7 772.782)"/>
    <use xlink:href="#au" transform="matrix(7 0 0 -7 513.688 772.782)"/>
    <use xlink:href="#aM" transform="matrix(7 0 0 -7 517.188 773.902)"/>
    <use xlink:href="#aN" transform="matrix(7 0 0 -7 520.289 773.902)"/>
    <use xlink:href="#ap" transform="matrix(7 0 0 -7 523.656 772.719)"/>
    <use xlink:href="#aL" transform="matrix(7 0 0 -7 525.497 772.719)"/>
    <use xlink:href="#au" transform="matrix(7 0 0 -7 527.905 772.782)"/>
    <use xlink:href="#aF" transform="matrix(7 0 0 -7 531.405 772.719)"/>
    <use xlink:href="#ap" transform="matrix(7 0 0 -7 533.358 772.719)"/>
    <use xlink:href="#aM" transform="matrix(7 0 0 -7 535.528 773.902)"/>
    <use xlink:href="#aE" transform="matrix(7 0 0 -7 538.881 772.782)"/>
    <use xlink:href="#aF" transform="matrix(7 0 0 -7 542.206 772.719)"/>
    <use xlink:href="#aI" transform="matrix(7 0 0 -7 544.467 772.782)"/>
    <use xlink:href="#au" transform="matrix(7 0 0 -7 547.414 772.782)"/>
    <use xlink:href="#aw" transform="matrix(7 0 0 -7 550.914 772.719)"/>
    <use xlink:href="#ar" transform="matrix(7 0 0 -7 554.295 772.775)"/>
    <use xlink:href="#aG" transform="matrix(7 0 0 -7 557.767 772.719)"/>
    <use xlink:href="#ap" transform="matrix(7 0 0 -7 558.852 772.719)"/>
    <use xlink:href="#aO" transform="matrix(7 0 0 -7 560.945 772.782)"/>
    <use xlink:href="#aI" transform="matrix(7 0 0 -7 564.41 772.782)"/>
    <use xlink:href="#aE" transform="matrix(7 0 0 -7 567.357 772.782)"/>
    <use xlink:href="#ap" transform="matrix(7 0 0 -7 570.199 772.719)"/>
    <use xlink:href="#au" transform="matrix(7 0 0 -7 572.229 772.782)"/>
    <use xlink:href="#aw" transform="matrix(7 0 0 -7 575.729 772.719)"/>
    <use xlink:href="#aG" transform="matrix(7 0 0 -7 579.376 772.719)"/>
    <use xlink:href="#aN" transform="matrix(7 0 0 -7 580.622 773.902)"/>
    <use xlink:href="#ay" transform="matrix(7 0 0 -7 583.947 772.719)"/>
  </g>
</svg>
